<svg width="626" height="360" viewBox="0 0 626 360" fill="none" xmlns="http://www.w3.org/2000/svg">
<g filter="url(#filter0_dd_544_120)">
<rect x="98.9297" y="111.316" width="279" height="74" rx="37" transform="rotate(-5 98.9297 111.316)" fill="url(#paint0_linear_544_120)"/>
</g>
<path d="M137.74 133.14L137.28 127.885L164.61 125.494L165.07 130.749L154.469 131.676L157 160.613L150.919 161.145L148.387 132.208L137.74 133.14ZM175.835 145.161L177.033 158.86L171.251 159.366L168.259 125.174L174.042 124.669L175.224 138.185C176.672 135.345 179.002 133.784 182.214 133.503C184.754 133.281 186.898 133.918 188.648 135.415C190.413 136.91 191.431 139.21 191.703 142.316L193.028 157.461L187.222 157.969L185.977 143.741C185.822 141.967 185.276 140.658 184.339 139.815C183.402 138.972 182.161 138.618 180.616 138.753C179.101 138.886 177.88 139.471 176.954 140.507C176.027 141.544 175.654 143.095 175.835 145.161ZM208.933 156.624C206.515 156.836 204.372 156.476 202.502 155.545C200.633 154.614 199.133 153.243 198.003 151.43C196.888 149.601 196.223 147.462 196.008 145.014C195.793 142.551 196.092 140.328 196.905 138.346C197.732 136.346 198.97 134.727 200.619 133.489C202.267 132.235 204.223 131.509 206.487 131.31C208.812 131.107 210.894 131.464 212.731 132.383C214.569 133.301 216.053 134.667 217.182 136.479C218.311 138.277 218.983 140.414 219.2 142.893L219.339 144.476L201.807 146.01C202.056 147.977 202.777 149.517 203.969 150.63C205.16 151.744 206.728 152.216 208.671 152.046C210.124 151.919 211.298 151.5 212.191 150.79C213.083 150.064 213.652 149.167 213.898 148.097L219.314 147.623C219.145 149.226 218.594 150.677 217.66 151.976C216.74 153.274 215.531 154.336 214.03 155.161C212.529 155.971 210.83 156.458 208.933 156.624ZM201.504 142.013L213.436 140.969C213.101 139.256 212.355 137.95 211.197 137.049C210.053 136.132 208.648 135.746 206.98 135.892C205.297 136.039 203.972 136.664 203.005 137.766C202.052 138.851 201.551 140.267 201.504 142.013ZM250.032 153.029C246.88 153.304 244.031 152.806 241.484 151.534C238.937 150.261 236.867 148.361 235.274 145.834C233.696 143.305 232.755 140.296 232.449 136.808C232.136 133.229 232.552 130.055 233.698 127.288C234.858 124.52 236.576 122.304 238.85 120.64C241.14 118.975 243.815 118.009 246.875 117.742C249.43 117.518 251.807 117.819 254.006 118.644C256.205 119.453 258.063 120.694 259.581 122.364C261.113 124.019 262.15 126.009 262.693 128.335L256.52 128.875C255.923 126.985 254.816 125.518 253.198 124.472C251.595 123.41 249.699 122.975 247.511 123.166C245.461 123.345 243.731 124.005 242.32 125.146C240.909 126.287 239.871 127.812 239.205 129.72C238.554 131.611 238.337 133.796 238.553 136.274C238.769 138.737 239.37 140.851 240.357 142.614C241.342 144.362 242.629 145.676 244.216 146.554C245.818 147.416 247.643 147.757 249.693 147.578C251.376 147.431 252.846 146.963 254.103 146.175C255.374 145.37 256.338 144.322 256.996 143.031C257.653 141.741 257.92 140.291 257.795 138.684L249.855 139.378L249.435 134.582L263.364 133.364L263.726 137.494C263.968 140.263 263.533 142.776 262.42 145.031C261.322 147.285 259.702 149.123 257.56 150.543C255.417 151.949 252.908 152.777 250.032 153.029ZM276.797 150.525C274.38 150.737 272.323 150.308 270.626 149.238C268.944 148.152 267.996 146.401 267.785 143.984C267.624 142.148 267.944 140.694 268.744 139.622C269.559 138.533 270.665 137.697 272.063 137.112C273.476 136.526 275.009 136.076 276.662 135.761C278.888 135.305 280.436 134.938 281.306 134.661C282.176 134.385 282.574 133.834 282.502 133.007L282.486 132.824C282.395 131.784 281.923 130.969 281.07 130.381C280.232 129.792 279.125 129.557 277.748 129.677C276.341 129.801 275.222 130.23 274.392 130.965C273.578 131.699 273.177 132.582 273.19 133.614L267.614 134.102C267.542 131.688 268.374 129.665 270.112 128.033C271.85 126.401 274.303 125.447 277.469 125.17C280.621 124.894 283.148 125.413 285.051 126.726C286.954 128.04 288.016 129.958 288.237 132.483L289.683 149.005L283.992 149.503L283.692 146.083L283.601 146.092C283.113 147.213 282.351 148.189 281.313 149.02C280.276 149.851 278.771 150.353 276.797 150.525ZM277.845 146.11C279.742 145.944 281.137 145.328 282.03 144.263C282.922 143.183 283.307 141.94 283.184 140.532L282.955 137.916C282.623 138.176 281.961 138.45 280.969 138.737C279.975 139.009 278.89 139.289 277.712 139.577C276.489 139.869 275.442 140.315 274.569 140.916C273.711 141.5 273.33 142.342 273.426 143.444C273.509 144.392 273.949 145.102 274.745 145.571C275.542 146.041 276.575 146.221 277.845 146.11ZM299.384 134.351L300.583 148.051L294.8 148.557L292.68 124.325L298.371 123.827L298.696 127.544C300.134 124.597 302.49 122.981 305.764 122.694C308.303 122.472 310.448 123.109 312.197 124.606C313.962 126.101 314.98 128.401 315.252 131.506L316.577 146.652L310.771 147.16L309.527 132.932C309.371 131.158 308.825 129.849 307.888 129.006C306.951 128.163 305.71 127.809 304.165 127.944C302.65 128.077 301.43 128.661 300.503 129.698C299.576 130.735 299.203 132.286 299.384 134.351ZM333.599 155.152C330.402 155.431 327.802 154.965 325.8 153.753C323.798 152.541 322.533 150.771 322.006 148.443L327.674 147.947C328.04 148.963 328.713 149.698 329.693 150.152C330.675 150.621 331.846 150.796 333.208 150.677C335.013 150.519 336.37 149.907 337.279 148.841C338.203 147.774 338.584 146.314 338.422 144.463L338.099 140.769L338.076 140.771C337.42 142.262 336.494 143.399 335.299 144.181C334.102 144.949 332.708 145.402 331.117 145.542C329.006 145.726 327.116 145.36 325.448 144.442C323.78 143.524 322.429 142.178 321.395 140.403C320.375 138.612 319.758 136.5 319.546 134.067C319.332 131.62 319.578 129.417 320.286 127.459C320.993 125.501 322.088 123.925 323.572 122.732C325.055 121.538 326.829 120.851 328.895 120.671C330.47 120.533 331.923 120.745 333.251 121.307C334.594 121.852 335.724 122.786 336.641 124.109L336.664 124.107L336.349 120.504L342.063 120.004L344.129 143.617C344.347 146.111 344.026 148.174 343.167 149.806C342.309 151.453 341.047 152.704 339.38 153.559C337.714 154.43 335.787 154.96 333.599 155.152ZM332.053 140.65C333.95 140.484 335.404 139.656 336.414 138.164C337.438 136.657 337.849 134.74 337.645 132.415C337.442 130.089 336.705 128.281 335.436 126.989C334.181 125.681 332.605 125.109 330.708 125.275C328.918 125.432 327.531 126.224 326.546 127.651C325.561 129.078 325.176 131.024 325.391 133.487C325.608 135.965 326.325 137.821 327.543 139.056C328.76 140.275 330.263 140.807 332.053 140.65Z" fill="white"/>
<g filter="url(#filter1_dd_544_120)">
<rect x="165.676" y="21.957" width="439" height="74" rx="37" transform="rotate(2.67183 165.676 21.957)" fill="url(#paint1_linear_544_120)"/>
</g>
<path d="M194.853 77.378L196.453 43.093L205.197 43.501L211.029 61.8293C211.307 62.7955 211.655 64.057 212.075 65.6139C212.495 67.1555 212.873 68.6029 213.209 69.9561C213.671 68.6401 214.174 67.2339 214.721 65.7374C215.283 64.2263 215.748 63.0027 216.114 62.0667L223.513 44.3558L232.303 44.766L230.703 79.051L224.72 78.7718L225.536 61.2842C225.593 60.0723 225.685 58.5854 225.814 56.8234C225.942 55.0615 226.07 53.3072 226.198 51.5605C225.494 53.4648 224.825 55.286 224.19 57.0244C223.556 58.7474 223.031 60.1218 222.614 61.1478L215.263 78.3305L210.293 78.0986L204.528 60.3038C204.222 59.2902 203.831 57.9422 203.356 56.2597C202.897 54.5626 202.412 52.7796 201.899 50.9109C201.867 52.6005 201.827 54.282 201.779 55.9555C201.748 57.6144 201.705 59.0191 201.652 60.1696L200.836 77.6572L194.853 77.378ZM236.444 88.9581L236.664 84.241L239.54 84.3752C240.322 84.4118 240.938 84.2253 241.388 83.8158C241.852 83.4224 242.275 82.758 242.657 81.8227L243.664 79.5175L235.426 54.9199L241.57 55.2066L245.443 68.0704C245.708 68.9898 245.965 69.9088 246.214 70.8275C246.464 71.7308 246.706 72.6338 246.941 73.5364C247.576 71.7827 248.243 70.0151 248.941 68.2337L253.972 55.7853L260.047 56.0688L247.866 83.8644C246.249 87.5401 243.707 89.2971 240.24 89.1353L236.444 88.9581ZM270.944 81.5054C267.983 81.3672 265.538 80.5613 263.608 79.0877C261.694 77.5994 260.706 75.547 260.644 72.9306L266.373 73.198C266.441 74.3849 266.874 75.3275 267.671 76.0258C268.469 76.7087 269.597 77.0842 271.055 77.1522C272.451 77.2173 273.56 76.9924 274.384 76.4774C275.222 75.9631 275.662 75.2764 275.702 74.4174C275.736 73.681 275.465 73.0765 274.887 72.6037C274.31 72.1309 273.52 71.7635 272.517 71.5015L268.415 70.4569C263.736 69.2546 261.483 66.805 261.656 63.1081C261.76 60.8684 262.734 59.1075 264.577 57.8253C266.421 56.5277 268.823 55.948 271.784 56.0861C274.729 56.2236 277.088 57.0639 278.861 58.6071C280.65 60.1357 281.517 62.1517 281.461 64.655L276.008 64.4005C276.028 63.3099 275.648 62.3928 274.868 61.6492C274.088 60.9056 273.038 60.5031 271.719 60.4415C270.446 60.3821 269.428 60.619 268.665 61.1522C267.902 61.6854 267.502 62.3662 267.463 63.1946C267.429 63.9156 267.685 64.5194 268.232 65.0061C268.778 65.4774 269.553 65.8518 270.554 66.1291L274.884 67.2306C277.269 67.8492 279.004 68.7295 280.088 69.8716C281.188 71.0145 281.696 72.4756 281.613 74.2551C281.539 75.8351 281.03 77.1873 280.086 78.3116C279.158 79.4213 277.905 80.2545 276.326 80.8111C274.747 81.3678 272.953 81.5992 270.944 81.5054ZM299.648 57.9168L299.43 62.5879L294.482 62.357L293.892 75.0126C293.851 75.8869 293.999 76.5011 294.336 76.8551C294.674 77.1937 295.311 77.3848 296.247 77.4285L298.732 77.5444L298.514 82.2155L295.016 82.0523C292.546 81.937 290.736 81.3529 289.586 80.3C288.452 79.2477 287.933 77.6785 288.031 75.5923L288.661 62.0853L284.427 61.8878L284.645 57.2167L288.879 57.4143L289.188 50.7874L295.01 51.059L294.7 57.686L299.648 57.9168ZM302.172 82.3862L303.306 58.0875L309.105 58.3581L307.971 82.6568L302.172 82.3862ZM306.374 54.6103C305.377 54.5637 304.563 54.2106 303.933 53.5509C303.303 52.8758 303.01 52.0704 303.054 51.1347C303.098 50.1989 303.464 49.432 304.153 48.8338C304.842 48.2356 305.685 47.9598 306.682 48.0064C307.664 48.0522 308.47 48.4049 309.1 49.0647C309.731 49.7244 310.024 50.5221 309.98 51.4579C309.936 52.3936 309.57 53.1682 308.88 53.7817C308.191 54.3799 307.356 54.6561 306.374 54.6103ZM323.845 83.951C321.483 83.8408 319.429 83.2069 317.684 82.0493C315.955 80.8925 314.636 79.3397 313.728 77.391C312.835 75.443 312.447 73.2188 312.563 70.7184C312.68 68.218 313.274 66.0396 314.344 64.1832C315.431 62.3122 316.889 60.8814 318.718 59.8906C320.564 58.8852 322.668 58.4377 325.03 58.5479C327.071 58.6431 328.87 59.1268 330.428 59.9989C331.987 60.8557 333.217 62.0046 334.118 63.4457C335.036 64.8721 335.536 66.4943 335.621 68.3123L329.937 68.0471C329.783 66.7331 329.273 65.6486 328.406 64.7933C327.555 63.9234 326.377 63.4534 324.874 63.3832C322.972 63.2945 321.451 63.9383 320.31 65.3149C319.17 66.6914 318.543 68.5838 318.431 70.9922C318.319 73.3853 318.767 75.3202 319.774 76.7969C320.782 78.2583 322.237 79.0334 324.14 79.1221C325.658 79.193 326.858 78.8493 327.739 78.091C328.621 77.3173 329.231 76.262 329.57 74.9249L335.3 75.1923C335.078 76.9653 334.444 78.5269 333.398 79.877C332.366 81.2279 331.026 82.2722 329.377 83.0101C327.745 83.7333 325.901 84.047 323.845 83.951ZM339.08 84.1086L340.68 49.8235L353.773 50.4345C356.289 50.5519 358.439 51.0981 360.223 52.073C362.022 53.0486 363.374 54.38 364.279 56.0672C365.2 57.7551 365.608 59.7189 365.503 61.9586C365.398 64.2136 364.801 66.1381 363.712 67.7323C362.623 69.3264 361.129 70.5327 359.231 71.3512C357.348 72.155 355.149 72.4982 352.634 72.3808L345.731 72.0586L345.155 84.3921L339.08 84.1086ZM345.973 66.8584L352.646 67.1698C354.686 67.265 356.321 66.8262 357.55 65.8536C358.78 64.8656 359.437 63.4742 359.521 61.6794C359.604 59.8999 359.079 58.4688 357.945 57.3859C356.812 56.303 355.226 55.7139 353.185 55.6187L346.512 55.3073L345.973 66.8584ZM368.257 85.4702L369.391 61.1715L375.19 61.4421L374.056 85.7407L368.257 85.4702ZM372.459 57.6942C371.462 57.6477 370.648 57.2945 370.018 56.6348C369.388 55.9597 369.095 55.1543 369.139 54.2186C369.183 53.2829 369.549 52.5159 370.238 51.9177C370.927 51.3196 371.77 51.0438 372.767 51.0903C373.749 51.1361 374.555 51.4889 375.185 52.1486C375.816 52.8083 376.109 53.6061 376.065 54.5418C376.021 55.4776 375.655 56.2522 374.965 56.8657C374.276 57.4638 373.441 57.74 372.459 57.6942ZM377.047 85.8803L386.438 73.9122L378.756 61.6085L385.222 61.9103L387.573 65.8941C387.985 66.6205 388.382 67.3385 388.764 68.0481C389.146 68.7424 389.529 69.4367 389.912 70.131C390.357 69.4754 390.803 68.8197 391.249 68.1641C391.711 67.4938 392.18 66.8163 392.658 66.1314L395.416 62.3859L401.789 62.6834L392.932 74.0999L401.047 87.0003L394.558 86.6975L391.86 82.2363C391.449 81.4946 391.045 80.7762 390.647 80.0812C390.249 79.3862 389.858 78.6915 389.475 77.9972C389.014 78.6521 388.553 79.3071 388.092 79.962C387.631 80.6169 387.154 81.2941 386.66 81.9936L383.513 86.1821L377.047 85.8803ZM404.061 87.141L405.195 62.8423L410.993 63.1129L409.86 87.4116L404.061 87.141ZM408.263 59.365C407.266 59.3185 406.452 58.9654 405.822 58.3056C405.192 57.6306 404.899 56.8252 404.943 55.8894C404.987 54.9537 405.353 54.1867 406.042 53.5886C406.731 52.9904 407.574 52.7146 408.571 52.7611C409.553 52.8069 410.359 53.1597 410.989 53.8194C411.619 54.4792 411.913 55.2769 411.869 56.2126C411.825 57.1484 411.459 57.923 410.769 58.5365C410.08 59.1347 409.245 59.4108 408.263 59.365ZM425.711 88.7047C423.287 88.5916 421.211 87.949 419.482 86.7768C417.754 85.6046 416.45 84.0449 415.573 82.0976C414.711 80.1357 414.338 77.9276 414.452 75.4732C414.567 73.0034 415.16 70.8404 416.231 68.984C417.317 67.113 418.761 65.6738 420.56 64.6662C422.36 63.6434 424.396 63.1849 426.666 63.2908C428.998 63.3996 431.013 64.0318 432.712 65.1872C434.41 66.3426 435.698 67.8939 436.576 69.8412C437.454 71.7731 437.836 73.9816 437.72 76.4667L437.646 78.0544L420.066 77.234C420.05 79.2165 420.559 80.8391 421.591 82.1018C422.624 83.3644 424.114 84.0412 426.062 84.1322C427.52 84.2002 428.739 83.9419 429.719 83.3573C430.7 82.7574 431.384 81.9438 431.77 80.9164L437.2 81.1698C436.82 82.7355 436.08 84.1 434.98 85.2632C433.896 86.4271 432.555 87.3177 430.958 87.935C429.362 88.5369 427.613 88.7935 425.711 88.7047ZM420.299 73.2324L432.264 73.7908C432.161 72.0488 431.596 70.6542 430.568 69.607C429.557 68.5451 428.215 67.9752 426.543 67.8972C424.856 67.8184 423.459 68.2606 422.354 69.2236C421.264 70.172 420.579 71.5083 420.299 73.2324Z" fill="white"/>
<path d="M454.177 89.4797L456.186 80.0265L447.488 79.6206L445.479 89.0738L442.166 88.9192L444.175 79.466L439.021 79.2255L439.728 75.9378L444.859 76.1773L446.662 67.683L441.6 67.4468L442.309 64.1131L447.371 64.3493L449.38 54.8961L452.694 55.0508L450.684 64.5039L459.428 64.912L461.437 55.4588L464.751 55.6134L462.742 65.0666L467.85 65.305L467.187 68.6408L462.033 68.4003L460.23 76.8945L465.315 77.1319L464.608 80.4195L459.546 80.1833L457.536 89.6365L454.177 89.4797ZM448.172 76.3319L456.893 76.7388L458.719 68.2457L449.975 67.8376L448.172 76.3319ZM468.37 81.8403L468.529 78.4348L485.989 56.6045L491.051 56.8408L490.01 79.1606L495.256 79.4054L495.084 83.087L489.838 82.8422L489.451 91.1258L485.494 90.9411L485.88 82.6575L468.37 81.8403ZM486.052 78.9759L486.877 61.3041L486.831 61.302L473.238 78.3317L473.235 78.3778L486.052 78.9759ZM509.606 92.6198C507.335 92.5138 505.345 92.0059 503.635 91.0959C501.925 90.1859 500.605 88.979 499.676 87.4752C498.747 85.9713 498.326 84.2837 498.413 82.4122C498.484 80.8935 498.871 79.5203 499.574 78.2925C500.278 77.0493 501.193 76.0466 502.32 75.2844C503.464 74.5076 504.73 74.0594 506.119 73.9397C504.371 73.5199 502.961 72.5855 501.891 71.1366C500.821 69.6877 500.333 67.9585 500.427 65.9489C500.509 64.1848 501.035 62.6336 502.005 61.2952C502.975 59.9415 504.261 58.9023 505.863 58.1776C507.465 57.453 509.263 57.1372 511.257 57.2302C513.236 57.3226 514.989 57.8041 516.517 58.6748C518.044 59.5455 519.22 60.6996 520.045 62.1371C520.885 63.5599 521.264 65.1534 521.182 66.9175C521.089 68.9117 520.442 70.588 519.241 71.9463C518.041 73.2892 516.566 74.089 514.817 74.3456C516.173 74.6087 517.384 75.1803 518.449 76.0602C519.516 76.9247 520.342 78.0087 520.927 79.312C521.512 80.5999 521.77 81.9955 521.7 83.4989C521.612 85.3704 521.036 87.0115 519.971 88.4223C518.906 89.833 517.48 90.9118 515.692 91.6586C513.905 92.4053 511.876 92.7257 509.606 92.6198ZM509.777 88.9382C512.063 89.0448 513.915 88.5701 515.332 87.514C516.765 86.4586 517.525 84.9951 517.612 83.1237C517.673 81.8351 517.404 80.6772 516.806 79.6501C516.208 78.6229 515.355 77.799 514.246 77.1785C513.138 76.5579 511.847 76.2133 510.374 76.1445C508.902 76.0758 507.577 76.2984 506.4 76.8123C505.238 77.3269 504.304 78.0674 503.598 79.0337C502.907 80.0007 502.532 81.1285 502.472 82.4171C502.385 84.2732 503.006 85.8011 504.333 87.0007C505.662 88.185 507.476 88.8308 509.777 88.9382ZM510.54 72.601C512.427 72.689 513.978 72.2234 515.194 71.204C516.426 70.1699 517.083 68.7709 517.165 67.0068C517.247 65.258 516.73 63.8195 515.614 62.6913C514.499 61.5631 512.99 60.9546 511.087 60.8658C509.185 60.7771 507.618 61.242 506.387 62.2607C505.156 63.2794 504.499 64.6631 504.418 66.4119C504.336 68.1607 504.861 69.6072 505.991 70.7514C507.121 71.8957 508.638 72.5122 510.54 72.601ZM526.866 92.8718L543.756 63.013L543.757 62.99L525.924 62.1578L526.096 58.4762L548.093 59.5027L547.911 63.4144L531.215 93.0748L526.866 92.8718ZM560.044 94.9735C557.068 94.8347 554.652 93.8841 552.798 92.1218C550.958 90.3603 549.941 88.1067 549.746 85.3611L553.796 85.5501C554.041 87.2219 554.693 88.5744 555.751 89.6077C556.81 90.641 558.206 91.1981 559.939 91.279C561.918 91.3714 563.578 90.88 564.92 89.805C566.277 88.7307 567.324 87.2115 568.061 85.2473C568.799 83.2832 569.227 81.0279 569.346 78.4814L569.3 78.4793C568.456 79.762 567.25 80.7357 565.681 81.4005C564.128 82.0659 562.431 82.3557 560.59 82.2698C558.535 82.1739 556.717 81.6048 555.136 80.5625C553.555 79.5048 552.337 78.1028 551.481 76.3564C550.625 74.61 550.247 72.6553 550.348 70.4923C550.453 68.2373 551.029 66.2733 552.076 64.6004C553.138 62.9281 554.55 61.6565 556.312 60.7856C558.091 59.9001 560.1 59.5095 562.339 59.6141C566.144 59.7916 569.016 61.34 570.955 64.2592C572.894 67.1784 573.743 71.2305 573.501 76.4154C573.322 80.2504 572.712 83.5888 571.673 86.4305C570.649 89.2576 569.172 91.4255 567.241 92.9342C565.312 94.4276 562.912 95.1074 560.044 94.9735ZM561.314 78.614C562.71 78.6791 563.992 78.4007 565.158 77.7787C566.325 77.1567 567.273 76.2862 568.001 75.1672C568.746 74.0336 569.152 72.7534 569.218 71.3268C569.286 69.8848 569.009 68.5729 568.387 67.3909C567.782 66.1942 566.935 65.2323 565.847 64.5051C564.759 63.7625 563.533 63.3594 562.168 63.2957C560.787 63.2312 559.513 63.5177 558.346 64.155C557.194 64.7777 556.254 65.6563 555.525 66.7906C554.811 67.9257 554.42 69.2219 554.352 70.6792C554.284 72.1211 554.546 73.4324 555.137 74.613C555.728 75.7782 556.56 76.7241 557.633 77.4506C558.722 78.1625 559.949 78.5502 561.314 78.614Z" fill="white"/>
<g filter="url(#filter2_dd_544_120)">
<rect x="149.852" y="162.33" width="353.872" height="74" rx="37" transform="rotate(6 149.852 162.33)" fill="url(#paint2_linear_544_120)"/>
</g>
<path d="M192.032 221.733C187.801 221.289 184.595 219.909 182.414 217.595C180.25 215.268 179.36 212.279 179.744 208.629L185.677 209.253C185.491 211.318 186.001 213 187.208 214.301C188.43 215.603 190.232 216.379 192.615 216.629C194.737 216.852 196.495 216.589 197.886 215.84C199.279 215.075 200.054 213.945 200.211 212.448C200.338 211.241 199.952 210.213 199.053 209.361C198.156 208.495 196.597 207.683 194.376 206.924L190.797 205.714C187.473 204.577 185.082 203.16 183.624 201.463C182.165 199.765 181.562 197.718 181.814 195.32C182.028 193.289 182.734 191.564 183.933 190.146C185.147 188.729 186.738 187.7 188.705 187.057C190.688 186.401 192.933 186.205 195.437 186.468C199.255 186.869 202.177 188.157 204.203 190.331C206.245 192.506 207.133 195.294 206.868 198.694L201.118 198.09C201.185 196.275 200.662 194.792 199.547 193.64C198.433 192.488 196.876 191.807 194.875 191.597C192.981 191.398 191.384 191.678 190.085 192.437C188.785 193.196 188.062 194.27 187.916 195.66C187.796 196.806 188.171 197.787 189.043 198.604C189.931 199.408 191.464 200.179 193.641 200.917L197.016 202.083C200.477 203.234 202.951 204.668 204.439 206.384C205.926 208.1 206.538 210.21 206.275 212.715C206.052 214.838 205.324 216.622 204.091 218.067C202.858 219.513 201.212 220.559 199.151 221.208C197.093 221.841 194.72 222.016 192.032 221.733ZM224.78 200.16L224.292 204.811L219.366 204.293L218.042 216.893C217.95 217.764 218.063 218.385 218.379 218.758C218.696 219.116 219.321 219.344 220.252 219.442L222.727 219.702L222.238 224.352L218.756 223.986C216.297 223.728 214.524 223.039 213.437 221.922C212.365 220.805 211.939 219.209 212.157 217.131L213.57 203.684L209.355 203.241L209.844 198.59L214.059 199.033L214.753 192.436L220.548 193.045L219.855 199.643L224.78 200.16ZM236.269 226.383C233.886 226.132 231.857 225.386 230.181 224.145C228.506 222.888 227.265 221.259 226.456 219.26C225.662 217.262 225.397 215.01 225.66 212.505C225.923 210.001 226.651 207.854 227.843 206.064C229.051 204.261 230.605 202.919 232.505 202.038C234.404 201.156 236.545 200.841 238.927 201.091C241.295 201.34 243.315 202.093 244.99 203.35C246.68 204.608 247.921 206.244 248.713 208.258C249.522 210.257 249.795 212.51 249.531 215.014C249.268 217.519 248.533 219.665 247.326 221.453C246.134 223.243 244.581 224.577 242.666 225.457C240.769 226.323 238.636 226.632 236.269 226.383ZM236.777 221.549C238.625 221.743 240.172 221.203 241.418 219.929C242.663 218.655 243.413 216.811 243.667 214.398C243.92 211.985 243.571 210.018 242.619 208.497C241.667 206.977 240.267 206.119 238.419 205.925C236.556 205.729 235.001 206.276 233.753 207.566C232.508 208.84 231.757 210.691 231.502 213.119C231.248 215.532 231.598 217.492 232.552 218.997C233.505 220.502 234.914 221.353 236.777 221.549ZM259.928 228.707C257.515 228.454 255.578 227.64 254.116 226.267C252.671 224.879 252.076 222.979 252.329 220.566C252.522 218.734 253.113 217.367 254.104 216.468C255.111 215.554 256.356 214.944 257.84 214.637C259.339 214.331 260.93 214.182 262.612 214.189C264.884 214.165 266.474 214.101 267.381 213.995C268.287 213.89 268.784 213.425 268.871 212.6L268.89 212.417C268.999 211.378 268.691 210.489 267.966 209.749C267.256 209.01 266.214 208.568 264.839 208.424C263.434 208.276 262.254 208.484 261.299 209.048C260.36 209.613 259.798 210.403 259.614 211.419L254.047 210.833C254.437 208.45 255.64 206.623 257.657 205.353C259.675 204.083 262.264 203.614 265.426 203.946C268.572 204.276 270.954 205.268 272.571 206.92C274.189 208.573 274.865 210.659 274.6 213.179L272.867 229.673L267.185 229.076L267.544 225.663L267.452 225.653C266.76 226.661 265.825 227.474 264.648 228.092C263.471 228.709 261.898 228.914 259.928 228.707ZM261.799 224.573C263.692 224.772 265.179 224.434 266.26 223.559C267.341 222.669 267.956 221.522 268.104 220.116L268.378 217.505C268.003 217.697 267.301 217.839 266.272 217.932C265.245 218.009 264.126 218.077 262.915 218.135C261.659 218.188 260.545 218.426 259.574 218.849C258.62 219.259 258.085 220.013 257.97 221.113C257.87 222.06 258.167 222.84 258.859 223.453C259.551 224.066 260.531 224.439 261.799 224.573ZM293.278 207.36L292.789 212.01L287.864 211.492L286.54 224.092C286.448 224.963 286.56 225.585 286.876 225.958C287.194 226.315 287.819 226.543 288.75 226.641L291.224 226.901L290.736 231.551L287.253 231.185C284.795 230.927 283.022 230.239 281.935 229.121C280.863 228.005 280.436 226.408 280.655 224.331L282.068 210.883L277.853 210.44L278.342 205.79L282.557 206.233L283.25 199.635L289.046 200.244L288.353 206.842L293.278 207.36ZM305.283 233.08L308.87 198.946L331.825 201.359L331.274 206.605L314.367 204.828L313.387 214.152L329.08 215.801L328.54 220.933L312.848 219.283L311.331 233.716L305.283 233.08ZM342.246 237.521C339.863 237.271 337.834 236.525 336.158 235.283C334.483 234.026 333.242 232.398 332.433 230.398C331.639 228.4 331.374 226.149 331.637 223.644C331.9 221.139 332.628 218.992 333.82 217.203C335.028 215.4 336.582 214.057 338.481 213.176C340.381 212.295 342.522 211.979 344.904 212.23C347.271 212.479 349.292 213.231 350.967 214.488C352.657 215.747 353.898 217.383 354.69 219.396C355.499 221.396 355.771 223.648 355.508 226.153C355.245 228.658 354.51 230.804 353.303 232.592C352.111 234.381 350.558 235.716 348.643 236.596C346.746 237.462 344.613 237.77 342.246 237.521ZM342.754 232.688C344.602 232.882 346.149 232.342 347.394 231.068C348.64 229.793 349.39 227.95 349.643 225.537C349.897 223.123 349.548 221.157 348.596 219.636C347.644 218.115 346.244 217.258 344.396 217.064C342.533 216.868 340.977 217.415 339.73 218.704C338.484 219.978 337.734 221.83 337.479 224.258C337.225 226.671 337.575 228.63 338.529 230.136C339.482 231.641 340.891 232.492 342.754 232.688ZM358.248 238.647L360.791 214.455L366.358 215.041L365.936 219.05L366.005 219.057C366.593 217.729 367.397 216.756 368.42 216.137C369.459 215.506 370.757 215.271 372.315 215.435C372.712 215.477 373.062 215.529 373.364 215.592C373.683 215.641 373.957 215.685 374.184 215.724L373.645 220.856C373.434 220.803 373.072 220.726 372.557 220.626C372.043 220.525 371.503 220.445 370.938 220.386C369.563 220.242 368.353 220.593 367.306 221.44C366.275 222.289 365.66 223.661 365.461 225.555L364.021 239.254L358.248 238.647ZM385.269 242.043C382.856 241.79 380.82 241.028 379.163 239.757C377.505 238.486 376.295 236.854 375.532 234.859C374.785 232.85 374.541 230.624 374.797 228.18C375.056 225.721 375.773 223.596 376.95 221.805C378.143 220.001 379.667 218.648 381.522 217.746C383.379 216.83 385.438 216.49 387.698 216.728C390.019 216.972 391.995 217.72 393.623 218.972C395.252 220.224 396.448 221.847 397.211 223.842C397.976 225.822 398.228 228.049 397.968 230.523L397.802 232.104L380.299 230.264C380.169 232.242 380.582 233.892 381.54 235.212C382.497 236.533 383.946 237.295 385.885 237.499C387.336 237.651 388.568 237.464 389.581 236.938C390.595 236.396 391.325 235.623 391.77 234.62L397.177 235.188C396.706 236.729 395.888 238.048 394.722 239.146C393.572 240.245 392.182 241.056 390.552 241.579C388.924 242.088 387.163 242.242 385.269 242.043ZM380.764 226.283L392.677 227.535C392.675 225.79 392.192 224.365 391.227 223.26C390.279 222.141 388.973 221.494 387.308 221.319C385.628 221.143 384.208 221.503 383.048 222.4C381.906 223.284 381.144 224.578 380.764 226.283ZM406.701 243.74L400.149 218.592L406.265 219.235L409.362 232.3C409.582 233.296 409.786 234.29 409.975 235.283C410.181 236.262 410.38 237.24 410.57 238.217C410.96 237.301 411.35 236.384 411.739 235.468C412.131 234.536 412.53 233.605 412.936 232.675L418.613 220.533L424.661 221.169L413.024 244.404L406.701 243.74ZM434.844 247.254C432.431 247 430.395 246.238 428.738 244.967C427.08 243.697 425.87 242.064 425.107 240.069C424.36 238.061 424.116 235.835 424.372 233.391C424.631 230.932 425.348 228.807 426.525 227.016C427.718 225.211 429.242 223.858 431.097 222.957C432.954 222.04 435.013 221.701 437.273 221.938C439.594 222.182 441.57 222.93 443.198 224.182C444.827 225.434 446.023 227.058 446.786 229.053C447.551 231.032 447.803 233.259 447.543 235.734L447.377 237.314L429.874 235.475C429.744 237.453 430.157 239.102 431.115 240.423C432.072 241.743 433.521 242.505 435.46 242.709C436.911 242.862 438.143 242.675 439.156 242.148C440.17 241.606 440.9 240.834 441.345 239.83L446.752 240.399C446.281 241.94 445.463 243.259 444.297 244.356C443.147 245.455 441.757 246.266 440.127 246.79C438.499 247.298 436.738 247.453 434.844 247.254ZM430.339 231.493L442.252 232.745C442.25 231 441.767 229.575 440.802 228.47C439.854 227.351 438.548 226.705 436.883 226.53C435.203 226.353 433.783 226.713 432.623 227.611C431.481 228.494 430.719 229.788 430.339 231.493ZM450.205 248.312L452.747 224.121L458.314 224.706L457.893 228.715L457.962 228.722C458.549 227.394 459.354 226.421 460.376 225.802C461.416 225.171 462.714 224.936 464.272 225.1C464.669 225.142 465.019 225.194 465.321 225.257C465.64 225.306 465.913 225.35 466.141 225.389L465.601 230.521C465.391 230.468 465.028 230.391 464.514 230.291C463.999 230.19 463.46 230.11 462.894 230.051C461.52 229.907 460.309 230.258 459.263 231.105C458.232 231.954 457.617 233.326 457.418 235.22L455.978 248.919L450.205 248.312Z" fill="white"/>
<g filter="url(#filter3_dd_544_120)">
<rect x="21.625" y="264.826" width="474" height="74" rx="37" transform="rotate(-3 21.625 264.826)" fill="url(#paint3_linear_544_120)"/>
</g>
<path d="M55.7143 288.091L55.4382 282.823L82.8355 281.388L83.1115 286.655L72.4839 287.212L74.0041 316.22L67.9082 316.539L66.3879 287.532L55.7143 288.091ZM93.3665 301.434L94.0862 315.167L88.2893 315.471L86.493 281.196L92.2899 280.892L93 294.441C94.5455 291.654 96.9285 290.176 100.149 290.007C102.695 289.873 104.816 290.585 106.512 292.141C108.224 293.697 109.161 296.032 109.324 299.145L110.12 314.327L104.3 314.632L103.552 300.37C103.459 298.591 102.959 297.264 102.052 296.389C101.145 295.514 99.917 295.117 98.3681 295.198C96.8499 295.277 95.6096 295.819 94.6472 296.823C93.6849 297.827 93.258 299.364 93.3665 301.434ZM122.723 314.059C120.3 314.186 118.259 313.685 116.601 312.557C114.957 311.413 114.072 309.63 113.945 307.207C113.848 305.366 114.219 303.924 115.056 302.881C115.908 301.821 117.042 301.024 118.46 300.488C119.892 299.952 121.44 299.555 123.103 299.299C125.344 298.92 126.904 298.608 127.783 298.362C128.662 298.116 129.079 297.579 129.036 296.751L129.026 296.567C128.972 295.524 128.528 294.694 127.696 294.076C126.88 293.458 125.781 293.185 124.401 293.257C122.99 293.331 121.857 293.721 121.002 294.427C120.163 295.132 119.732 296 119.709 297.032L114.119 297.325C114.131 294.91 115.033 292.917 116.827 291.347C118.621 289.777 121.105 288.908 124.28 288.742C127.439 288.577 129.947 289.183 131.803 290.562C133.659 291.941 134.653 293.896 134.786 296.426L135.654 312.989L129.949 313.288L129.769 309.86L129.677 309.865C129.151 310.969 128.355 311.918 127.289 312.712C126.223 313.506 124.701 313.955 122.723 314.059ZM123.924 309.682C125.826 309.583 127.241 309.016 128.171 307.983C129.101 306.935 129.528 305.706 129.454 304.295L129.317 301.672C128.976 301.921 128.305 302.171 127.303 302.424C126.301 302.661 125.206 302.903 124.02 303.149C122.787 303.399 121.725 303.808 120.832 304.378C119.954 304.931 119.543 305.76 119.601 306.864C119.651 307.815 120.066 308.539 120.845 309.036C121.625 309.534 122.651 309.749 123.924 309.682ZM152.323 287.757L152.568 292.427L147.622 292.686L148.285 305.338C148.331 306.212 148.539 306.808 148.91 307.127C149.279 307.431 149.932 307.558 150.867 307.509L153.352 307.379L153.596 312.049L150.1 312.232C147.631 312.361 145.772 311.959 144.524 311.025C143.291 310.09 142.619 308.579 142.51 306.494L141.802 292.991L137.57 293.213L137.325 288.543L141.558 288.321L141.211 281.696L147.03 281.391L147.378 288.016L152.323 287.757ZM183.185 311.052C180.026 311.217 177.197 310.635 174.697 309.305C172.198 307.975 170.188 306.02 168.669 303.439C167.15 300.858 166.297 297.789 166.111 294.231C165.923 290.643 166.449 287.486 167.69 284.76C168.931 282.035 170.725 279.88 173.072 278.296C175.419 276.712 178.172 275.838 181.331 275.672C183.907 275.537 186.265 275.921 188.404 276.824C190.542 277.727 192.335 279.063 193.781 280.832C195.242 282.601 196.23 284.725 196.744 287.205L190.556 287.529C189.982 285.376 188.904 283.741 187.323 282.624C185.743 281.507 183.856 281.007 181.663 281.121C179.577 281.231 177.802 281.831 176.336 282.923C174.886 284.014 173.803 285.501 173.087 287.384C172.386 289.266 172.1 291.441 172.23 293.91C172.358 296.364 172.869 298.49 173.763 300.289C174.672 302.071 175.904 303.429 177.46 304.362C179.016 305.296 180.844 305.707 182.945 305.597C185.123 305.483 186.94 304.796 188.396 303.535C189.853 302.275 190.769 300.543 191.146 298.34L197.311 298.017C197.058 300.536 196.298 302.752 195.03 304.664C193.776 306.56 192.132 308.068 190.1 309.19C188.066 310.296 185.761 310.916 183.185 311.052ZM212.952 309.492C210.559 309.617 208.438 309.198 206.588 308.233C204.738 307.254 203.257 305.84 202.145 303.991C201.048 302.142 200.434 299.96 200.303 297.445C200.171 294.93 200.553 292.695 201.451 290.741C202.362 288.771 203.687 287.202 205.425 286.035C207.163 284.867 209.228 284.221 211.621 284.096C213.998 283.971 216.112 284.398 217.962 285.378C219.828 286.357 221.31 287.778 222.407 289.643C223.519 291.492 224.14 293.673 224.272 296.188C224.404 298.704 224.014 300.938 223.101 302.893C222.204 304.847 220.879 306.408 219.125 307.576C217.387 308.729 215.329 309.367 212.952 309.492ZM212.697 304.638C214.553 304.541 215.996 303.765 217.027 302.312C218.058 300.858 218.51 298.92 218.383 296.497C218.256 294.074 217.604 292.186 216.426 290.833C215.248 289.48 213.731 288.852 211.875 288.949C210.004 289.047 208.554 289.831 207.523 291.3C206.492 292.753 206.041 294.699 206.168 297.137C206.295 299.56 206.948 301.441 208.125 302.778C209.302 304.116 210.826 304.736 212.697 304.638ZM238.344 308.092C236.228 308.202 234.352 307.77 232.717 306.795C231.082 305.819 229.778 304.412 228.805 302.571C227.846 300.714 227.301 298.521 227.168 295.991C227.038 293.506 227.361 291.298 228.136 289.366C228.91 287.418 230.06 285.874 231.584 284.733C233.107 283.577 234.904 282.945 236.974 282.836C238.554 282.753 239.989 283.001 241.281 283.579C242.572 284.157 243.644 285.093 244.496 286.386L244.542 286.384L243.838 272.95L249.634 272.646L251.431 306.921L245.726 307.22L245.532 303.517L245.486 303.519C244.793 304.97 243.82 306.075 242.568 306.832C241.332 307.589 239.924 308.009 238.344 308.092ZM239.447 303.167C241.348 303.067 242.83 302.282 243.891 300.812C244.966 299.325 245.442 297.401 245.318 295.039C245.194 292.678 244.52 290.821 243.296 289.471C242.087 288.104 240.531 287.471 238.629 287.57C236.835 287.664 235.421 288.415 234.388 289.822C233.354 291.23 232.903 293.183 233.034 295.683C233.166 298.198 233.819 300.102 234.994 301.393C236.168 302.67 237.653 303.261 239.447 303.167ZM256.583 306.651L255.31 282.359L261.107 282.056L262.38 306.347L256.583 306.651ZM258.02 278.596C257.023 278.648 256.178 278.377 255.486 277.783C254.793 277.174 254.421 276.401 254.372 275.466C254.323 274.53 254.612 273.731 255.239 273.067C255.865 272.404 256.677 272.046 257.674 271.994C258.655 271.943 259.492 272.214 260.184 272.808C260.877 273.402 261.247 274.167 261.297 275.103C261.346 276.038 261.057 276.845 260.432 277.524C259.805 278.187 259.001 278.545 258.02 278.596ZM272.61 292.04L273.33 305.774L267.533 306.077L266.26 281.786L271.965 281.487L272.16 285.213C273.7 282.318 276.111 280.785 279.393 280.613C281.939 280.48 284.06 281.191 285.756 282.748C287.467 284.303 288.405 286.638 288.568 289.751L289.364 304.933L283.544 305.238L282.796 290.976C282.703 289.197 282.203 287.87 281.296 286.995C280.389 286.12 279.161 285.723 277.612 285.804C276.094 285.884 274.853 286.425 273.891 287.429C272.929 288.433 272.502 289.97 272.61 292.04ZM306.079 314.022C302.874 314.19 300.292 313.633 298.333 312.352C296.375 311.071 295.172 309.258 294.727 306.913L300.408 306.615C300.739 307.643 301.386 308.401 302.35 308.889C303.314 309.392 304.479 309.608 305.844 309.536C307.653 309.442 309.031 308.877 309.976 307.844C310.937 306.809 311.369 305.364 311.272 303.508L311.077 299.805L311.054 299.806C310.347 301.273 309.382 302.377 308.16 303.118C306.937 303.843 305.528 304.248 303.933 304.331C301.817 304.442 299.941 304.01 298.306 303.035C296.671 302.059 295.368 300.667 294.397 298.857C293.44 297.031 292.897 294.899 292.77 292.46C292.641 290.007 292.964 287.814 293.74 285.882C294.515 283.949 295.665 282.413 297.189 281.272C298.713 280.131 300.51 279.506 302.58 279.398C304.16 279.315 305.604 279.578 306.912 280.186C308.235 280.778 309.332 281.75 310.202 283.104L310.225 283.103L310.036 279.491L315.764 279.191L317.004 302.862C317.135 305.362 316.743 307.412 315.827 309.013C314.913 310.63 313.607 311.836 311.911 312.632C310.216 313.444 308.272 313.907 306.079 314.022ZM305.04 299.475C306.941 299.376 308.423 298.598 309.485 297.143C310.561 295.672 311.038 293.771 310.916 291.44C310.794 289.109 310.121 287.276 308.898 285.941C307.689 284.589 306.134 283.963 304.232 284.063C302.438 284.157 301.023 284.9 299.989 286.292C298.955 287.684 298.503 289.615 298.632 292.084C298.762 294.568 299.414 296.449 300.588 297.725C301.762 298.986 303.245 299.569 305.04 299.475ZM348.052 302.411C344.892 302.577 342.062 301.979 339.561 300.619C337.06 299.258 335.058 297.287 333.554 294.706C332.065 292.123 331.23 289.084 331.046 285.587C330.858 281.999 331.385 278.842 332.626 276.116C333.882 273.39 335.676 271.235 338.008 269.652C340.354 268.068 343.061 267.196 346.128 267.035C348.69 266.901 351.055 267.285 353.224 268.186C355.393 269.072 357.206 270.376 358.665 272.099C360.139 273.805 361.106 275.831 361.567 278.175L355.379 278.499C354.849 276.589 353.793 275.084 352.213 273.982C350.648 272.865 348.768 272.364 346.575 272.479C344.52 272.586 342.768 273.186 341.318 274.277C339.868 275.368 338.777 276.855 338.046 278.739C337.329 280.606 337.035 282.782 337.165 285.266C337.295 287.736 337.822 289.869 338.746 291.665C339.67 293.447 340.91 294.804 342.466 295.738C344.036 296.655 345.849 297.06 347.904 296.952C349.591 296.864 351.076 296.448 352.36 295.704C353.658 294.944 354.658 293.93 355.36 292.663C356.063 291.396 356.38 289.957 356.311 288.346L348.351 288.763L348.099 283.955L362.063 283.224L362.28 287.364C362.425 290.14 361.902 292.635 360.711 294.851C359.536 297.065 357.853 298.845 355.663 300.19C353.472 301.52 350.935 302.26 348.052 302.411ZM367.461 300.84L366.188 276.549L371.778 276.256L371.988 280.281L372.057 280.278C372.43 278.874 373.073 277.787 373.986 277.017C374.913 276.23 376.159 275.795 377.723 275.713C378.122 275.693 378.476 275.689 378.784 275.704C379.107 275.702 379.384 275.703 379.614 275.707L379.885 280.859C379.668 280.84 379.298 280.821 378.774 280.802C378.251 280.784 377.705 280.789 377.137 280.819C375.757 280.891 374.617 281.428 373.716 282.428C372.83 283.428 372.437 284.879 372.537 286.78L373.258 300.537L367.461 300.84ZM394.818 299.96C392.426 300.086 390.304 299.666 388.455 298.702C386.604 297.723 385.123 296.309 384.011 294.46C382.915 292.611 382.301 290.428 382.169 287.913C382.037 285.398 382.42 283.164 383.317 281.21C384.228 279.24 385.553 277.671 387.291 276.504C389.029 275.336 391.095 274.69 393.487 274.564C395.864 274.44 397.978 274.867 399.828 275.847C401.694 276.825 403.176 278.247 404.273 280.112C405.385 281.96 406.007 284.142 406.138 286.657C406.27 289.172 405.88 291.407 404.967 293.362C404.07 295.316 402.745 296.877 400.992 298.045C399.253 299.197 397.195 299.836 394.818 299.96ZM394.564 295.107C396.419 295.009 397.862 294.234 398.894 292.781C399.925 291.327 400.377 289.389 400.25 286.966C400.123 284.543 399.47 282.655 398.292 281.302C397.114 279.949 395.597 279.321 393.741 279.418C391.87 279.516 390.42 280.3 389.39 281.768C388.359 283.222 387.907 285.168 388.035 287.606C388.162 290.029 388.814 291.909 389.991 293.247C391.168 294.585 392.693 295.205 394.564 295.107ZM419.474 298.599C416.928 298.732 414.807 298.021 413.111 296.464C411.415 294.908 410.485 292.573 410.322 289.46L409.526 274.277L415.323 273.974L416.071 288.236C416.164 290.015 416.664 291.342 417.571 292.217C418.478 293.092 419.706 293.489 421.255 293.408C422.789 293.327 424.029 292.786 424.976 291.783C425.938 290.779 426.365 289.242 426.257 287.171L425.537 273.438L431.357 273.133L432.63 297.425L426.925 297.724L426.73 293.997C425.174 296.893 422.756 298.427 419.474 298.599ZM438.31 306.769L436.533 272.862L442.237 272.563L442.415 275.945L442.484 275.941C443.183 274.613 444.16 273.593 445.414 272.881C446.669 272.169 448.078 271.773 449.642 271.691C451.728 271.581 453.581 272.022 455.202 273.014C456.837 273.989 458.141 275.405 459.115 277.261C460.103 279.1 460.662 281.262 460.793 283.747C460.925 286.277 460.604 288.516 459.83 290.464C459.07 292.395 457.928 293.931 456.404 295.072C454.88 296.213 453.059 296.839 450.943 296.95C449.348 297.033 447.911 296.763 446.633 296.138C445.37 295.512 444.319 294.529 443.48 293.189L443.411 293.192L444.107 306.466L438.31 306.769ZM449.331 292.167C451.126 292.073 452.54 291.33 453.574 289.938C454.608 288.531 455.059 286.569 454.927 284.054C454.796 281.555 454.143 279.659 452.968 278.367C451.793 277.075 450.308 276.477 448.514 276.571C446.612 276.67 445.124 277.463 444.048 278.95C442.988 280.42 442.519 282.336 442.643 284.698C442.767 287.06 443.433 288.924 444.643 290.291C445.867 291.641 447.43 292.267 449.331 292.167Z" fill="white"/>
<defs>
<filter id="filter0_dd_544_120" x="78.5927" y="66.663" width="325.061" height="138.709" filterUnits="userSpaceOnUse" color-interpolation-filters="sRGB">
<feFlood flood-opacity="0" result="BackgroundImageFix"/>
<feColorMatrix in="SourceAlpha" type="matrix" values="0 0 0 0 0 0 0 0 0 0 0 0 0 0 0 0 0 0 127 0" result="hardAlpha"/>
<feOffset/>
<feGaussianBlur stdDeviation="11.7095"/>
<feComposite in2="hardAlpha" operator="out"/>
<feColorMatrix type="matrix" values="0 0 0 0 1 0 0 0 0 0.2625 0 0 0 0 0.9705 0 0 0 0.1 0"/>
<feBlend mode="normal" in2="BackgroundImageFix" result="effect1_dropShadow_544_120"/>
<feColorMatrix in="SourceAlpha" type="matrix" values="0 0 0 0 0 0 0 0 0 0 0 0 0 0 0 0 0 0 127 0" result="hardAlpha"/>
<feOffset dy="3.45343"/>
<feGaussianBlur stdDeviation="1.72671"/>
<feComposite in2="hardAlpha" operator="out"/>
<feColorMatrix type="matrix" values="0 0 0 0 0 0 0 0 0 0 0 0 0 0 0 0 0 0 0.25 0"/>
<feBlend mode="normal" in2="effect1_dropShadow_544_120" result="effect2_dropShadow_544_120"/>
<feBlend mode="normal" in="SourceGraphic" in2="effect2_dropShadow_544_120" result="shape"/>
</filter>
<filter id="filter1_dd_544_120" x="140.491" y="0.22164" width="485.443" height="137.854" filterUnits="userSpaceOnUse" color-interpolation-filters="sRGB">
<feFlood flood-opacity="0" result="BackgroundImageFix"/>
<feColorMatrix in="SourceAlpha" type="matrix" values="0 0 0 0 0 0 0 0 0 0 0 0 0 0 0 0 0 0 127 0" result="hardAlpha"/>
<feOffset/>
<feGaussianBlur stdDeviation="11.7095"/>
<feComposite in2="hardAlpha" operator="out"/>
<feColorMatrix type="matrix" values="0 0 0 0 1 0 0 0 0 0.2625 0 0 0 0 0.9705 0 0 0 0.1 0"/>
<feBlend mode="normal" in2="BackgroundImageFix" result="effect1_dropShadow_544_120"/>
<feColorMatrix in="SourceAlpha" type="matrix" values="0 0 0 0 0 0 0 0 0 0 0 0 0 0 0 0 0 0 127 0" result="hardAlpha"/>
<feOffset dy="3.45343"/>
<feGaussianBlur stdDeviation="1.72671"/>
<feComposite in2="hardAlpha" operator="out"/>
<feColorMatrix type="matrix" values="0 0 0 0 0 0 0 0 0 0 0 0 0 0 0 0 0 0 0.25 0"/>
<feBlend mode="normal" in2="effect1_dropShadow_544_120" result="effect2_dropShadow_544_120"/>
<feBlend mode="normal" in="SourceGraphic" in2="effect2_dropShadow_544_120" result="shape"/>
</filter>
<filter id="filter2_dd_544_120" x="122.358" y="142.573" width="399.186" height="150.098" filterUnits="userSpaceOnUse" color-interpolation-filters="sRGB">
<feFlood flood-opacity="0" result="BackgroundImageFix"/>
<feColorMatrix in="SourceAlpha" type="matrix" values="0 0 0 0 0 0 0 0 0 0 0 0 0 0 0 0 0 0 127 0" result="hardAlpha"/>
<feOffset/>
<feGaussianBlur stdDeviation="11.7095"/>
<feComposite in2="hardAlpha" operator="out"/>
<feColorMatrix type="matrix" values="0 0 0 0 1 0 0 0 0 0.2625 0 0 0 0 0.2625 0 0 0 0.1 0"/>
<feBlend mode="normal" in2="BackgroundImageFix" result="effect1_dropShadow_544_120"/>
<feColorMatrix in="SourceAlpha" type="matrix" values="0 0 0 0 0 0 0 0 0 0 0 0 0 0 0 0 0 0 127 0" result="hardAlpha"/>
<feOffset dy="3.45343"/>
<feGaussianBlur stdDeviation="1.72671"/>
<feComposite in2="hardAlpha" operator="out"/>
<feColorMatrix type="matrix" values="0 0 0 0 0 0 0 0 0 0 0 0 0 0 0 0 0 0 0.25 0"/>
<feBlend mode="normal" in2="effect1_dropShadow_544_120" result="effect2_dropShadow_544_120"/>
<feBlend mode="normal" in="SourceGraphic" in2="effect2_dropShadow_544_120" result="shape"/>
</filter>
<filter id="filter3_dd_544_120" x="0.71172" y="219.104" width="519.053" height="140.536" filterUnits="userSpaceOnUse" color-interpolation-filters="sRGB">
<feFlood flood-opacity="0" result="BackgroundImageFix"/>
<feColorMatrix in="SourceAlpha" type="matrix" values="0 0 0 0 0 0 0 0 0 0 0 0 0 0 0 0 0 0 127 0" result="hardAlpha"/>
<feOffset/>
<feGaussianBlur stdDeviation="11.4"/>
<feComposite in2="hardAlpha" operator="out"/>
<feColorMatrix type="matrix" values="0 0 0 0 0.227451 0 0 0 0 0.74902 0 0 0 0 0.494118 0 0 0 0.21 0"/>
<feBlend mode="normal" in2="BackgroundImageFix" result="effect1_dropShadow_544_120"/>
<feColorMatrix in="SourceAlpha" type="matrix" values="0 0 0 0 0 0 0 0 0 0 0 0 0 0 0 0 0 0 127 0" result="hardAlpha"/>
<feOffset dy="3.45343"/>
<feGaussianBlur stdDeviation="1.72671"/>
<feComposite in2="hardAlpha" operator="out"/>
<feColorMatrix type="matrix" values="0 0 0 0 0 0 0 0 0 0 0 0 0 0 0 0 0 0 0.25 0"/>
<feBlend mode="normal" in2="effect1_dropShadow_544_120" result="effect2_dropShadow_544_120"/>
<feBlend mode="normal" in="SourceGraphic" in2="effect2_dropShadow_544_120" result="shape"/>
</filter>
<linearGradient id="paint0_linear_544_120" x1="268.346" y1="185.316" x2="263.957" y2="108.163" gradientUnits="userSpaceOnUse">
<stop stop-color="#88207E"/>
<stop offset="1" stop-color="#B830BB"/>
</linearGradient>
<linearGradient id="paint1_linear_544_120" x1="432.248" y1="95.957" x2="429.453" y2="18.6548" gradientUnits="userSpaceOnUse">
<stop/>
<stop offset="1" stop-color="#454545"/>
</linearGradient>
<linearGradient id="paint2_linear_544_120" x1="364.732" y1="236.33" x2="361.268" y2="159.082" gradientUnits="userSpaceOnUse">
<stop stop-color="#640FB2"/>
<stop offset="1" stop-color="#8C24EC"/>
</linearGradient>
<linearGradient id="paint3_linear_544_120" x1="309.45" y1="338.826" x2="306.861" y2="261.51" gradientUnits="userSpaceOnUse">
<stop stop-color="#208C57"/>
<stop offset="1" stop-color="#3ABF7E"/>
</linearGradient>
</defs>
</svg>
