<?xml version="1.0" encoding="UTF-8" standalone="no"?>
<!DOCTYPE svg PUBLIC "-//W3C//DTD SVG 1.1//EN" "http://www.w3.org/Graphics/SVG/1.1/DTD/svg11.dtd">
<svg width="1883px" height="712px" version="1.1" xmlns="http://www.w3.org/2000/svg" xmlns:xlink="http://www.w3.org/1999/xlink" xml:space="preserve" xmlns:serif="http://www.serif.com/" style="fill-rule:evenodd;clip-rule:evenodd;stroke-linejoin:round;stroke-miterlimit:2;">
    <style>
        .x { fill: white; }
    </style>        
    <g transform="matrix(1,0,0,1,1657.05,-2910.58)" class="x">
        <g transform="matrix(1,0,0,1,-70.3371,2682.89)">
            <g transform="matrix(309.062,0,0,306.776,-1322.52,445.5)">
                <path d="M0.125,-0l0,-0.57l-0.095,0l0,-0.13l0.34,0l0,0.13l-0.095,0l0,0.57l-0.15,-0Z" style="fill-rule:nonzero;"/>
            </g>
            <g transform="matrix(309.062,0,0,306.776,-1205.03,445.5)">
                <path d="M0.03,-0l0,-0.7l0.149,0l0,0.275l0.053,0l0,-0.275l0.148,0l0,0.7l-0.148,-0l0,-0.275l-0.053,0l-0,0.275l-0.149,-0Z" style="fill-rule:nonzero;"/>
            </g>
            <g transform="matrix(309.062,0,0,306.776,-1081.38,445.5)">
                <path d="M0.205,0.01c-0.032,0 -0.061,-0.008 -0.088,-0.024c-0.027,-0.015 -0.048,-0.036 -0.064,-0.063c-0.015,-0.026 -0.023,-0.055 -0.023,-0.088l-0,-0.37c-0,-0.033 0.008,-0.062 0.023,-0.089c0.016,-0.026 0.037,-0.047 0.064,-0.063c0.027,-0.015 0.056,-0.023 0.088,-0.023c0.032,-0 0.061,0.008 0.088,0.023c0.027,0.016 0.048,0.037 0.063,0.063c0.016,0.027 0.024,0.056 0.024,0.089l-0,0.224l-0.201,-0l-0,0.156c-0,0.007 0.002,0.013 0.007,0.018c0.005,0.005 0.012,0.008 0.019,0.008c0.007,-0 0.013,-0.003 0.018,-0.008c0.005,-0.005 0.007,-0.011 0.007,-0.018l-0,-0.105l0.15,-0l0,0.106c-0.001,0.031 -0.01,0.058 -0.027,0.083c-0.016,0.025 -0.037,0.044 -0.063,0.059c-0.025,0.015 -0.054,0.022 -0.085,0.022Zm-0.026,-0.461l0.051,-0l0,-0.104c0,-0.007 -0.002,-0.013 -0.007,-0.018c-0.005,-0.005 -0.011,-0.007 -0.018,-0.007c-0.007,0 -0.013,0.002 -0.018,0.007c-0.005,0.005 -0.008,0.011 -0.008,0.018l0,0.104Z" style="fill-rule:nonzero;"/>
            </g>
            <g transform="matrix(309.062,0,0,306.776,-892.854,445.5)">
                <path d="M0.21,0.01c-0.032,0 -0.061,-0.008 -0.088,-0.024c-0.027,-0.015 -0.048,-0.036 -0.064,-0.063c-0.015,-0.026 -0.023,-0.055 -0.023,-0.088l0,-0.37c0,-0.033 0.008,-0.062 0.024,-0.089c0.015,-0.026 0.036,-0.047 0.063,-0.063c0.027,-0.015 0.056,-0.023 0.088,-0.023c0.033,-0 0.062,0.008 0.089,0.023c0.026,0.016 0.047,0.037 0.063,0.063c0.015,0.027 0.023,0.056 0.023,0.089l0,0.11l-0.148,-0l0,-0.119c0,-0.007 -0.003,-0.014 -0.008,-0.019c-0.005,-0.005 -0.012,-0.007 -0.019,-0.007c-0.007,-0 -0.013,0.002 -0.018,0.007c-0.005,0.005 -0.008,0.012 -0.008,0.019l0,0.389c0,0.007 0.003,0.013 0.008,0.018c0.005,0.005 0.011,0.008 0.018,0.008c0.007,-0 0.014,-0.003 0.019,-0.008c0.005,-0.005 0.008,-0.011 0.008,-0.018l0,-0.12l0.148,-0l0,0.11c0,0.033 -0.008,0.062 -0.024,0.088c-0.015,0.027 -0.036,0.048 -0.063,0.063c-0.026,0.016 -0.055,0.024 -0.088,0.024Z" style="fill-rule:nonzero;"/>
            </g>
            <g transform="matrix(309.062,0,0,306.776,-766.116,445.5)">
                <path d="M0.03,-0l0,-0.7l0.149,0l0,0.275l0.053,0l0,-0.275l0.148,0l0,0.7l-0.148,-0l0,-0.275l-0.053,0l-0,0.275l-0.149,-0Z" style="fill-rule:nonzero;"/>
            </g>
            <g transform="matrix(309.062,0,0,306.776,-642.469,445.5)">
                <path d="M0.187,0.01c-0.032,0 -0.06,-0.008 -0.083,-0.024c-0.024,-0.015 -0.042,-0.036 -0.055,-0.063c-0.013,-0.026 -0.019,-0.055 -0.019,-0.088l0,-0.098c0,-0.032 0.008,-0.061 0.024,-0.088c0.015,-0.027 0.036,-0.048 0.063,-0.064c0.027,-0.015 0.056,-0.023 0.088,-0.023l0.027,0l0,-0.128c0,-0.007 -0.003,-0.013 -0.008,-0.018c-0.005,-0.005 -0.012,-0.008 -0.019,-0.008c-0.007,0 -0.013,0.003 -0.018,0.008c-0.005,0.005 -0.008,0.011 -0.008,0.018l0,0.102l-0.149,0l0,-0.071c0,-0.033 0.008,-0.062 0.024,-0.088c0.015,-0.027 0.036,-0.048 0.063,-0.063c0.027,-0.016 0.056,-0.024 0.088,-0.024c0.033,0 0.062,0.008 0.089,0.024c0.026,0.015 0.047,0.036 0.063,0.063c0.015,0.026 0.023,0.055 0.023,0.088l0,0.535l-0.105,0l0,-0.035l-0.01,0c-0.007,0.015 -0.018,0.026 -0.033,0.034c-0.015,0.007 -0.03,0.011 -0.045,0.011Zm0.018,-0.139c0.007,0 0.014,-0.002 0.019,-0.007c0.005,-0.005 0.008,-0.012 0.008,-0.019l0,-0.143l-0.027,0c-0.007,0 -0.013,0.003 -0.018,0.008c-0.005,0.005 -0.008,0.011 -0.008,0.018l0,0.117c-0,0.007 0.003,0.014 0.008,0.019c0.005,0.005 0.011,0.007 0.018,0.007Z" style="fill-rule:nonzero;"/>
            </g>
            <g transform="matrix(309.062,0,0,306.776,-524.957,445.5)">
                <path d="M0.125,-0l0,-0.57l-0.095,0l0,-0.13l0.34,0l0,0.13l-0.095,0l0,0.57l-0.15,-0Z" style="fill-rule:nonzero;"/>
            </g>
            <g transform="matrix(309.062,0,0,306.776,-339.52,445.5)">
                <path d="M0.187,0.01c-0.032,0 -0.06,-0.008 -0.083,-0.024c-0.024,-0.015 -0.042,-0.036 -0.055,-0.063c-0.013,-0.026 -0.019,-0.055 -0.019,-0.088l0,-0.098c0,-0.032 0.008,-0.061 0.024,-0.088c0.015,-0.027 0.036,-0.048 0.063,-0.064c0.027,-0.015 0.056,-0.023 0.088,-0.023l0.027,0l0,-0.128c0,-0.007 -0.003,-0.013 -0.008,-0.018c-0.005,-0.005 -0.012,-0.008 -0.019,-0.008c-0.007,0 -0.013,0.003 -0.018,0.008c-0.005,0.005 -0.008,0.011 -0.008,0.018l0,0.102l-0.149,0l0,-0.071c0,-0.033 0.008,-0.062 0.024,-0.088c0.015,-0.027 0.036,-0.048 0.063,-0.063c0.027,-0.016 0.056,-0.024 0.088,-0.024c0.033,0 0.062,0.008 0.089,0.024c0.026,0.015 0.047,0.036 0.063,0.063c0.015,0.026 0.023,0.055 0.023,0.088l0,0.535l-0.105,0l0,-0.035l-0.01,0c-0.007,0.015 -0.018,0.026 -0.033,0.034c-0.015,0.007 -0.03,0.011 -0.045,0.011Zm0.018,-0.139c0.007,0 0.014,-0.002 0.019,-0.007c0.005,-0.005 0.008,-0.012 0.008,-0.019l0,-0.143l-0.027,0c-0.007,0 -0.013,0.003 -0.018,0.008c-0.005,0.005 -0.008,0.011 -0.008,0.018l0,0.117c-0,0.007 0.003,0.014 0.008,0.019c0.005,0.005 0.011,0.007 0.018,0.007Z" style="fill-rule:nonzero;"/>
            </g>
            <g transform="matrix(309.062,0,0,306.776,-212.805,445.5)">
                <path d="M0.03,-0l0,-0.7l0.155,0c0.036,0 0.069,0.009 0.098,0.026c0.029,0.017 0.053,0.041 0.07,0.07c0.018,0.029 0.027,0.062 0.027,0.098l-0,0.12c0,0.036 -0.009,0.069 -0.027,0.098c-0.017,0.029 -0.041,0.053 -0.07,0.07c-0.029,0.017 -0.062,0.026 -0.098,0.026l-0.006,0l-0,0.192l-0.149,0Zm0.149,-0.322l0.003,0c0.009,0 0.017,-0.001 0.024,-0.003c0.007,-0.002 0.013,-0.008 0.017,-0.017c0.005,-0.009 0.007,-0.025 0.007,-0.047l-0,-0.113c-0,-0.023 -0.002,-0.039 -0.007,-0.048c-0.004,-0.009 -0.01,-0.015 -0.017,-0.017c-0.007,-0.002 -0.015,-0.003 -0.024,-0.003l-0.003,0l-0,0.248Z" style="fill-rule:nonzero;"/>
            </g>
            <g transform="matrix(309.062,0,0,306.776,-92.2248,445.5)">
                <path d="M0.03,-0l0,-0.7l0.155,0c0.036,0 0.069,0.009 0.098,0.026c0.029,0.017 0.053,0.041 0.07,0.07c0.018,0.029 0.027,0.062 0.027,0.098l-0,0.12c0,0.036 -0.009,0.069 -0.027,0.098c-0.017,0.029 -0.041,0.053 -0.07,0.07c-0.029,0.017 -0.062,0.026 -0.098,0.026l-0.006,0l-0,0.192l-0.149,0Zm0.149,-0.322l0.003,0c0.009,0 0.017,-0.001 0.024,-0.003c0.007,-0.002 0.013,-0.008 0.017,-0.017c0.005,-0.009 0.007,-0.025 0.007,-0.047l-0,-0.113c-0,-0.023 -0.002,-0.039 -0.007,-0.048c-0.004,-0.009 -0.01,-0.015 -0.017,-0.017c-0.007,-0.002 -0.015,-0.003 -0.024,-0.003l-0.003,0l-0,0.248Z" style="fill-rule:nonzero;"/>
            </g>
            <g transform="matrix(309.062,0,0,306.776,-1595.99,690.921)">
                <path d="M0.074,-0l-0.044,-0.685l0,-0.015l0.111,0l0.014,0.311l0.013,0l0.037,-0.311l0.087,0l0.037,0.311l0.013,0l0.014,-0.311l0.111,0l0,0.015l-0.043,0.685l-0.151,-0l-0.016,-0.25l-0.016,0l-0.017,0.25l-0.15,-0Z" style="fill-rule:nonzero;"/>
            </g>
            <g transform="matrix(309.062,0,0,306.776,-1448.52,690.921)">
                <path d="M0.03,-0l0,-0.7l0.149,0l0,0.275l0.053,0l0,-0.275l0.148,0l0,0.7l-0.148,-0l0,-0.275l-0.053,0l-0,0.275l-0.149,-0Z" style="fill-rule:nonzero;"/>
            </g>
            <g transform="matrix(309.062,0,0,306.776,-1324.87,690.921)">
                <path d="M0.205,0.01c-0.032,0 -0.061,-0.008 -0.088,-0.024c-0.027,-0.015 -0.048,-0.036 -0.064,-0.063c-0.015,-0.026 -0.023,-0.055 -0.023,-0.088l-0,-0.37c-0,-0.033 0.008,-0.062 0.023,-0.089c0.016,-0.026 0.037,-0.047 0.064,-0.063c0.027,-0.015 0.056,-0.023 0.088,-0.023c0.032,-0 0.061,0.008 0.088,0.023c0.027,0.016 0.048,0.037 0.063,0.063c0.016,0.027 0.024,0.056 0.024,0.089l-0,0.224l-0.201,-0l-0,0.156c-0,0.007 0.002,0.013 0.007,0.018c0.005,0.005 0.012,0.008 0.019,0.008c0.007,-0 0.013,-0.003 0.018,-0.008c0.005,-0.005 0.007,-0.011 0.007,-0.018l-0,-0.105l0.15,-0l0,0.106c-0.001,0.031 -0.01,0.058 -0.027,0.083c-0.016,0.025 -0.037,0.044 -0.063,0.059c-0.025,0.015 -0.054,0.022 -0.085,0.022Zm-0.026,-0.461l0.051,-0l0,-0.104c0,-0.007 -0.002,-0.013 -0.007,-0.018c-0.005,-0.005 -0.011,-0.007 -0.018,-0.007c-0.007,0 -0.013,0.002 -0.018,0.007c-0.005,0.005 -0.008,0.011 -0.008,0.018l0,0.104Z" style="fill-rule:nonzero;"/>
            </g>
            <g transform="matrix(309.062,0,0,306.776,-1201.22,690.921)">
                <path d="M0.03,-0l0,-0.7l0.153,0c0.036,0 0.069,0.009 0.099,0.027c0.03,0.017 0.054,0.041 0.071,0.071c0.018,0.029 0.027,0.062 0.027,0.099l-0,0.117c0,0.017 -0.004,0.04 -0.013,0.068c-0.009,0.027 -0.025,0.052 -0.049,0.074l-0,0.015l0.062,0.229l-0.15,0l-0.042,-0.193l-0.009,0l-0,0.193l-0.149,0Zm0.149,-0.322l0.008,0c0.012,0 0.022,-0.003 0.03,-0.01c0.009,-0.007 0.013,-0.025 0.013,-0.054l-0,-0.12c-0,-0.028 -0.004,-0.046 -0.013,-0.053c-0.008,-0.007 -0.018,-0.011 -0.03,-0.011l-0.008,0l-0,0.248Z" style="fill-rule:nonzero;"/>
            </g>
            <g transform="matrix(309.062,0,0,306.776,-1080.64,690.921)">
                <path d="M0.03,-0l0,-0.7l0.28,0l-0,0.13l-0.131,0l-0,0.145l0.087,0l-0,0.15l-0.087,0l-0,0.146l0.131,0l-0,0.129l-0.28,0Z" style="fill-rule:nonzero;"/>
            </g>
            <g transform="matrix(309.062,0,0,306.776,-913.75,690.921)">
                <path d="M0.131,-0l0,-0.311l-0.101,-0.374l0,-0.015l0.149,0l0.02,0.26l0.013,0l0.02,-0.26l0.148,0l0,0.015l-0.1,0.374l0,0.311l-0.149,0Z" style="fill:rgb(140,36,236);fill-rule:nonzero;"/>
            </g>
            <g transform="matrix(309.062,0,0,306.776,-802.065,690.921)">
                <path d="M0.205,0.01c-0.032,0 -0.061,-0.008 -0.088,-0.024c-0.027,-0.015 -0.048,-0.036 -0.064,-0.063c-0.015,-0.026 -0.023,-0.055 -0.023,-0.088l-0,-0.37c-0,-0.033 0.008,-0.062 0.023,-0.089c0.016,-0.026 0.037,-0.047 0.064,-0.063c0.027,-0.015 0.056,-0.023 0.088,-0.023c0.032,-0 0.061,0.008 0.088,0.023c0.027,0.016 0.048,0.037 0.063,0.063c0.016,0.027 0.024,0.056 0.024,0.089l-0,0.37c0,0.033 -0.008,0.062 -0.024,0.088c-0.015,0.027 -0.036,0.048 -0.063,0.063c-0.027,0.016 -0.056,0.024 -0.088,0.024Zm-0,-0.132c0.007,-0 0.013,-0.003 0.018,-0.008c0.005,-0.005 0.007,-0.01 0.007,-0.017l-0,-0.407c-0,-0.007 -0.002,-0.013 -0.007,-0.018c-0.005,-0.005 -0.011,-0.008 -0.018,-0.008c-0.007,0 -0.014,0.003 -0.019,0.008c-0.005,0.005 -0.007,0.011 -0.007,0.018l-0,0.407c-0,0.007 0.002,0.013 0.007,0.018c0.005,0.005 0.012,0.007 0.019,0.007Z" style="fill:rgb(140,36,236);fill-rule:nonzero;"/>
            </g>
            <g transform="matrix(309.062,0,0,306.776,-681.176,690.921)">
                <path d="M0.205,0.01c-0.032,0 -0.061,-0.008 -0.088,-0.024c-0.027,-0.015 -0.048,-0.036 -0.064,-0.063c-0.015,-0.026 -0.023,-0.055 -0.023,-0.088l-0,-0.535l0.149,-0l-0,0.544c-0,0.007 0.003,0.014 0.008,0.019c0.005,0.005 0.011,0.008 0.018,0.008c0.007,-0 0.014,-0.003 0.019,-0.008c0.005,-0.005 0.008,-0.012 0.008,-0.019l0,-0.544l0.148,-0l0,0.535c0,0.033 -0.008,0.062 -0.024,0.088c-0.015,0.027 -0.036,0.048 -0.063,0.063c-0.026,0.016 -0.055,0.024 -0.088,0.024Z" style="fill:rgb(140,36,236);fill-rule:nonzero;"/>
            </g>
            <g transform="matrix(309.062,0,0,306.776,-492.648,690.921)">
                <path d="M0.03,-0l0.085,-0.7l0.18,0l0.085,0.7l-0.14,-0l-0.009,-0.129l-0.053,0l-0.007,0.129l-0.141,-0Zm0.156,-0.279l0.038,0l-0.01,-0.221l-0.017,0l-0.011,0.221Z" style="fill-rule:nonzero;"/>
            </g>
            <g transform="matrix(309.062,0,0,306.776,-372.069,690.921)">
                <path d="M0.03,-0l0,-0.7l0.153,0c0.036,0 0.069,0.009 0.099,0.027c0.03,0.017 0.054,0.041 0.071,0.071c0.018,0.029 0.027,0.062 0.027,0.099l-0,0.117c0,0.017 -0.004,0.04 -0.013,0.068c-0.009,0.027 -0.025,0.052 -0.049,0.074l-0,0.015l0.062,0.229l-0.15,0l-0.042,-0.193l-0.009,0l-0,0.193l-0.149,0Zm0.149,-0.322l0.008,0c0.012,0 0.022,-0.003 0.03,-0.01c0.009,-0.007 0.013,-0.025 0.013,-0.054l-0,-0.12c-0,-0.028 -0.004,-0.046 -0.013,-0.053c-0.008,-0.007 -0.018,-0.011 -0.03,-0.011l-0.008,0l-0,0.248Z" style="fill-rule:nonzero;"/>
            </g>
            <g transform="matrix(309.062,0,0,306.776,-251.489,690.921)">
                <path d="M0.205,0.01c-0.032,0 -0.061,-0.008 -0.088,-0.024c-0.027,-0.015 -0.048,-0.036 -0.064,-0.063c-0.015,-0.026 -0.023,-0.055 -0.023,-0.088l-0,-0.37c-0,-0.033 0.008,-0.062 0.023,-0.089c0.016,-0.026 0.037,-0.047 0.064,-0.063c0.027,-0.015 0.056,-0.023 0.088,-0.023c0.032,-0 0.061,0.008 0.088,0.023c0.027,0.016 0.048,0.037 0.063,0.063c0.016,0.027 0.024,0.056 0.024,0.089l-0,0.224l-0.201,-0l-0,0.156c-0,0.007 0.002,0.013 0.007,0.018c0.005,0.005 0.012,0.008 0.019,0.008c0.007,-0 0.013,-0.003 0.018,-0.008c0.005,-0.005 0.007,-0.011 0.007,-0.018l-0,-0.105l0.15,-0l0,0.106c-0.001,0.031 -0.01,0.058 -0.027,0.083c-0.016,0.025 -0.037,0.044 -0.063,0.059c-0.025,0.015 -0.054,0.022 -0.085,0.022Zm-0.026,-0.461l0.051,-0l0,-0.104c0,-0.007 -0.002,-0.013 -0.007,-0.018c-0.005,-0.005 -0.011,-0.007 -0.018,-0.007c-0.007,0 -0.013,0.002 -0.018,0.007c-0.005,0.005 -0.008,0.011 -0.008,0.018l0,0.104Z" style="fill-rule:nonzero;"/>
            </g>
            <g transform="matrix(309.062,0,0,306.776,-62.9613,690.921)">
                <path d="M0.125,-0l0,-0.57l-0.095,0l0,-0.13l0.34,0l0,0.13l-0.095,0l0,0.57l-0.15,-0Z" style="fill-rule:nonzero;"/>
            </g>
            <g transform="matrix(309.062,0,0,306.776,54.5278,690.921)">
                <path d="M0.03,-0l0,-0.7l0.149,0l0,0.275l0.053,0l0,-0.275l0.148,0l0,0.7l-0.148,-0l0,-0.275l-0.053,0l-0,0.275l-0.149,-0Z" style="fill-rule:nonzero;"/>
            </g>
            <g transform="matrix(309.062,0,0,306.776,178.175,690.921)">
                <path d="M0.205,0.01c-0.032,0 -0.061,-0.008 -0.088,-0.024c-0.027,-0.015 -0.048,-0.036 -0.064,-0.063c-0.015,-0.026 -0.023,-0.055 -0.023,-0.088l-0,-0.37c-0,-0.033 0.008,-0.062 0.023,-0.089c0.016,-0.026 0.037,-0.047 0.064,-0.063c0.027,-0.015 0.056,-0.023 0.088,-0.023c0.032,-0 0.061,0.008 0.088,0.023c0.027,0.016 0.048,0.037 0.063,0.063c0.016,0.027 0.024,0.056 0.024,0.089l-0,0.224l-0.201,-0l-0,0.156c-0,0.007 0.002,0.013 0.007,0.018c0.005,0.005 0.012,0.008 0.019,0.008c0.007,-0 0.013,-0.003 0.018,-0.008c0.005,-0.005 0.007,-0.011 0.007,-0.018l-0,-0.105l0.15,-0l0,0.106c-0.001,0.031 -0.01,0.058 -0.027,0.083c-0.016,0.025 -0.037,0.044 -0.063,0.059c-0.025,0.015 -0.054,0.022 -0.085,0.022Zm-0.026,-0.461l0.051,-0l0,-0.104c0,-0.007 -0.002,-0.013 -0.007,-0.018c-0.005,-0.005 -0.011,-0.007 -0.018,-0.007c-0.007,0 -0.013,0.002 -0.018,0.007c-0.005,0.005 -0.008,0.011 -0.008,0.018l0,0.104Z" style="fill-rule:nonzero;"/>
            </g>
            <g transform="matrix(309.062,0,0,306.776,-1447.45,936.342)">
                <path d="M0.03,-0l0,-0.7l0.171,0l0.045,0.311l0.006,0l0.043,-0.311l0.172,0l0,0.7l-0.13,-0l0,-0.311l-0.006,0l-0.039,0.311l-0.087,-0l-0.039,-0.311l-0.006,0l0,0.311l-0.13,-0Z" style="fill:rgb(140,36,236);fill-rule:nonzero;"/>
            </g>
            <g transform="matrix(309.062,0,0,306.776,-1296.91,936.342)">
                <path d="M0.187,0.01c-0.032,0 -0.06,-0.008 -0.083,-0.024c-0.024,-0.015 -0.042,-0.036 -0.055,-0.063c-0.013,-0.026 -0.019,-0.055 -0.019,-0.088l0,-0.098c0,-0.032 0.008,-0.061 0.024,-0.088c0.015,-0.027 0.036,-0.048 0.063,-0.064c0.027,-0.015 0.056,-0.023 0.088,-0.023l0.027,0l0,-0.128c0,-0.007 -0.003,-0.013 -0.008,-0.018c-0.005,-0.005 -0.012,-0.008 -0.019,-0.008c-0.007,0 -0.013,0.003 -0.018,0.008c-0.005,0.005 -0.008,0.011 -0.008,0.018l0,0.102l-0.149,0l0,-0.071c0,-0.033 0.008,-0.062 0.024,-0.088c0.015,-0.027 0.036,-0.048 0.063,-0.063c0.027,-0.016 0.056,-0.024 0.088,-0.024c0.033,0 0.062,0.008 0.089,0.024c0.026,0.015 0.047,0.036 0.063,0.063c0.015,0.026 0.023,0.055 0.023,0.088l0,0.535l-0.105,0l0,-0.035l-0.01,0c-0.007,0.015 -0.018,0.026 -0.033,0.034c-0.015,0.007 -0.03,0.011 -0.045,0.011Zm0.018,-0.139c0.007,0 0.014,-0.002 0.019,-0.007c0.005,-0.005 0.008,-0.012 0.008,-0.019l0,-0.143l-0.027,0c-0.007,0 -0.013,0.003 -0.018,0.008c-0.005,0.005 -0.008,0.011 -0.008,0.018l0,0.117c-0,0.007 0.003,0.014 0.008,0.019c0.005,0.005 0.011,0.007 0.018,0.007Z" style="fill:rgb(140,36,236);fill-rule:nonzero;"/>
            </g>
            <g transform="matrix(309.062,0,0,306.776,-1170.2,936.342)">
                <rect x="0.03" y="-0.7" width="0.151" height="0.7" style="fill:rgb(140,36,236);fill-rule:nonzero;"/>
            </g>
            <g transform="matrix(309.062,0,0,306.776,-1104.98,936.342)">
                <path d="M0.251,-0.71c0.031,0 0.056,0.008 0.076,0.023c0.018,0.016 0.032,0.037 0.04,0.063c0.009,0.027 0.013,0.056 0.013,0.089l0,0.535l-0.149,-0l0,-0.545c0,-0.007 -0.003,-0.014 -0.008,-0.019c-0.005,-0.005 -0.011,-0.007 -0.018,-0.007c-0.007,-0 -0.013,0.002 -0.018,0.007c-0.005,0.005 -0.007,0.012 -0.007,0.019l0,0.545l-0.15,-0l0,-0.7l0.119,-0l-0,0.035l0.01,-0c0.005,-0.011 0.017,-0.022 0.034,-0.031c0.018,-0.009 0.037,-0.014 0.058,-0.014Z" style="fill:rgb(140,36,236);fill-rule:nonzero;"/>
            </g>
            <g transform="matrix(309.062,0,0,306.776,-916.457,936.342)">
                <path d="M0.21,0.01c-0.032,0 -0.061,-0.008 -0.088,-0.024c-0.027,-0.015 -0.048,-0.036 -0.064,-0.063c-0.015,-0.026 -0.023,-0.055 -0.023,-0.088l0,-0.37c0,-0.033 0.008,-0.062 0.024,-0.089c0.015,-0.026 0.036,-0.047 0.063,-0.063c0.027,-0.015 0.056,-0.023 0.088,-0.023c0.033,-0 0.062,0.008 0.089,0.023c0.026,0.016 0.047,0.037 0.063,0.063c0.015,0.027 0.023,0.056 0.023,0.089l0,0.11l-0.148,-0l0,-0.119c0,-0.007 -0.003,-0.014 -0.008,-0.019c-0.005,-0.005 -0.012,-0.007 -0.019,-0.007c-0.007,-0 -0.013,0.002 -0.018,0.007c-0.005,0.005 -0.008,0.012 -0.008,0.019l0,0.389c0,0.007 0.003,0.013 0.008,0.018c0.005,0.005 0.011,0.008 0.018,0.008c0.007,-0 0.014,-0.003 0.019,-0.008c0.005,-0.005 0.008,-0.011 0.008,-0.018l0,-0.12l0.148,-0l0,0.11c0,0.033 -0.008,0.062 -0.024,0.088c-0.015,0.027 -0.036,0.048 -0.063,0.063c-0.026,0.016 -0.055,0.024 -0.088,0.024Z" style="fill:rgb(140,36,236);fill-rule:nonzero;"/>
            </g>
            <g transform="matrix(309.062,0,0,306.776,-789.719,936.342)">
                <path d="M0.03,-0l0,-0.7l0.149,0l0,0.275l0.053,0l0,-0.275l0.148,0l0,0.7l-0.148,-0l0,-0.275l-0.053,0l-0,0.275l-0.149,-0Z" style="fill:rgb(140,36,236);fill-rule:nonzero;"/>
            </g>
            <g transform="matrix(309.062,0,0,306.776,-669.139,936.342)">
                <path d="M0.03,-0l0.085,-0.7l0.18,0l0.085,0.7l-0.14,-0l-0.009,-0.129l-0.053,0l-0.007,0.129l-0.141,-0Zm0.156,-0.279l0.038,0l-0.01,-0.221l-0.017,0l-0.011,0.221Z" style="fill:rgb(140,36,236);fill-rule:nonzero;"/>
            </g>
            <g transform="matrix(309.062,0,0,306.776,-548.56,936.342)">
                <path d="M0.179,-0l-0.149,-0l0,-0.7l0.153,0c0.037,0 0.07,0.009 0.1,0.026c0.029,0.016 0.053,0.039 0.07,0.068c0.018,0.029 0.027,0.061 0.027,0.098c0,0.041 -0.011,0.073 -0.033,0.097c-0.021,0.024 -0.047,0.041 -0.076,0.05l-0,0.015c0.029,0.005 0.052,0.018 0.069,0.041c0.017,0.022 0.026,0.051 0.026,0.086l-0,0.22l-0.148,0l-0,-0.22c-0,-0.007 -0.003,-0.013 -0.008,-0.018c-0.005,-0.005 -0.012,-0.008 -0.019,-0.008l-0.012,0l-0,0.245Zm-0,-0.445l0.019,0c0.009,0 0.017,-0.003 0.023,-0.009c0.007,-0.007 0.01,-0.014 0.01,-0.023l-0,-0.058c-0,-0.009 -0.003,-0.017 -0.01,-0.023c-0.006,-0.007 -0.014,-0.01 -0.023,-0.01l-0.019,0l-0,0.123Z" style="fill:rgb(140,36,236);fill-rule:nonzero;"/>
            </g>
            <g transform="matrix(309.062,0,0,306.776,-427.98,936.342)">
                <path d="M0.187,0.01c-0.032,0 -0.06,-0.008 -0.083,-0.024c-0.024,-0.015 -0.042,-0.036 -0.055,-0.063c-0.013,-0.026 -0.019,-0.055 -0.019,-0.088l0,-0.098c0,-0.032 0.008,-0.061 0.024,-0.088c0.015,-0.027 0.036,-0.048 0.063,-0.064c0.027,-0.015 0.056,-0.023 0.088,-0.023l0.027,0l0,-0.128c0,-0.007 -0.003,-0.013 -0.008,-0.018c-0.005,-0.005 -0.012,-0.008 -0.019,-0.008c-0.007,0 -0.013,0.003 -0.018,0.008c-0.005,0.005 -0.008,0.011 -0.008,0.018l0,0.102l-0.149,0l0,-0.071c0,-0.033 0.008,-0.062 0.024,-0.088c0.015,-0.027 0.036,-0.048 0.063,-0.063c0.027,-0.016 0.056,-0.024 0.088,-0.024c0.033,0 0.062,0.008 0.089,0.024c0.026,0.015 0.047,0.036 0.063,0.063c0.015,0.026 0.023,0.055 0.023,0.088l0,0.535l-0.105,0l0,-0.035l-0.01,0c-0.007,0.015 -0.018,0.026 -0.033,0.034c-0.015,0.007 -0.03,0.011 -0.045,0.011Zm0.018,-0.139c0.007,0 0.014,-0.002 0.019,-0.007c0.005,-0.005 0.008,-0.012 0.008,-0.019l0,-0.143l-0.027,0c-0.007,0 -0.013,0.003 -0.018,0.008c-0.005,0.005 -0.008,0.011 -0.008,0.018l0,0.117c-0,0.007 0.003,0.014 0.008,0.019c0.005,0.005 0.011,0.007 0.018,0.007Z" style="fill:rgb(140,36,236);fill-rule:nonzero;"/>
            </g>
            <g transform="matrix(309.062,0,0,306.776,-304.332,936.342)">
                <path d="M0.21,0.01c-0.032,0 -0.061,-0.008 -0.088,-0.024c-0.027,-0.015 -0.048,-0.036 -0.064,-0.063c-0.015,-0.026 -0.023,-0.055 -0.023,-0.088l0,-0.37c0,-0.033 0.008,-0.062 0.024,-0.089c0.015,-0.026 0.036,-0.047 0.063,-0.063c0.027,-0.015 0.056,-0.023 0.088,-0.023c0.033,-0 0.062,0.008 0.089,0.023c0.026,0.016 0.047,0.037 0.063,0.063c0.015,0.027 0.023,0.056 0.023,0.089l0,0.11l-0.148,-0l0,-0.119c0,-0.007 -0.003,-0.014 -0.008,-0.019c-0.005,-0.005 -0.012,-0.007 -0.019,-0.007c-0.007,-0 -0.013,0.002 -0.018,0.007c-0.005,0.005 -0.008,0.012 -0.008,0.019l0,0.389c0,0.007 0.003,0.013 0.008,0.018c0.005,0.005 0.011,0.008 0.018,0.008c0.007,-0 0.014,-0.003 0.019,-0.008c0.005,-0.005 0.008,-0.011 0.008,-0.018l0,-0.12l0.148,-0l0,0.11c0,0.033 -0.008,0.062 -0.024,0.088c-0.015,0.027 -0.036,0.048 -0.063,0.063c-0.026,0.016 -0.055,0.024 -0.088,0.024Z" style="fill:rgb(140,36,236);fill-rule:nonzero;"/>
            </g>
            <g transform="matrix(309.062,0,0,306.776,-183.73,936.342)">
                <path d="M0.125,-0l0,-0.57l-0.095,0l0,-0.13l0.34,0l0,0.13l-0.095,0l0,0.57l-0.15,-0Z" style="fill:rgb(140,36,236);fill-rule:nonzero;"/>
            </g>
            <g transform="matrix(309.062,0,0,306.776,-66.2408,936.342)">
                <path d="M0.03,-0l0,-0.7l0.28,0l-0,0.13l-0.131,0l-0,0.145l0.087,0l-0,0.15l-0.087,0l-0,0.146l0.131,0l-0,0.129l-0.28,0Z" style="fill:rgb(140,36,236);fill-rule:nonzero;"/>
            </g>
            <g transform="matrix(309.062,0,0,306.776,32.7047,936.342)">
                <path d="M0.179,-0l-0.149,-0l0,-0.7l0.153,0c0.037,0 0.07,0.009 0.1,0.026c0.029,0.016 0.053,0.039 0.07,0.068c0.018,0.029 0.027,0.061 0.027,0.098c0,0.041 -0.011,0.073 -0.033,0.097c-0.021,0.024 -0.047,0.041 -0.076,0.05l-0,0.015c0.029,0.005 0.052,0.018 0.069,0.041c0.017,0.022 0.026,0.051 0.026,0.086l-0,0.22l-0.148,0l-0,-0.22c-0,-0.007 -0.003,-0.013 -0.008,-0.018c-0.005,-0.005 -0.012,-0.008 -0.019,-0.008l-0.012,0l-0,0.245Zm-0,-0.445l0.019,0c0.009,0 0.017,-0.003 0.023,-0.009c0.007,-0.007 0.01,-0.014 0.01,-0.023l-0,-0.058c-0,-0.009 -0.003,-0.017 -0.01,-0.023c-0.006,-0.007 -0.014,-0.01 -0.023,-0.01l-0.019,0l-0,0.123Z" style="fill:rgb(140,36,236);fill-rule:nonzero;"/>
            </g>
        </g>
    </g>
</svg>
