<?xml version="1.0" encoding="UTF-8" standalone="no"?>
<!DOCTYPE svg PUBLIC "-//W3C//DTD SVG 1.1//EN" "http://www.w3.org/Graphics/SVG/1.1/DTD/svg11.dtd">
<svg width="100%" height="100%" viewBox="0 0 509 301" version="1.1" xmlns="http://www.w3.org/2000/svg" xmlns:xlink="http://www.w3.org/1999/xlink" xml:space="preserve" xmlns:serif="http://www.serif.com/" style="fill-rule:evenodd;clip-rule:evenodd;stroke-linejoin:round;stroke-miterlimit:2;">
    <g transform="matrix(1,0,0,1,-467.488,481.353)" style="fill:white;">
        <g transform="matrix(0.891056,-0.0770098,0,0.891056,-427.821,-905.208)">
            <g>
                <g transform="matrix(25.7551,-0.0128569,-4.44089e-16,25.5647,-6609.55,-13670)">
                    <g transform="matrix(12,0,0,12,299.682,567.215)">
                        <path d="M0.125,-0L0.125,-0.57L0.03,-0.57L0.03,-0.7L0.37,-0.7L0.37,-0.57L0.275,-0.57L0.275,-0L0.125,-0Z" style="fill-rule:nonzero;"/>
                    </g>
                    <g transform="matrix(12,0,0,12,304.122,567.215)">
                        <path d="M0.205,0.01C0.173,0.01 0.144,0.002 0.117,-0.014C0.09,-0.029 0.069,-0.05 0.054,-0.077C0.038,-0.103 0.03,-0.132 0.03,-0.165L0.03,-0.535C0.03,-0.568 0.038,-0.597 0.054,-0.624C0.069,-0.65 0.09,-0.671 0.117,-0.687C0.144,-0.702 0.173,-0.71 0.205,-0.71C0.237,-0.71 0.266,-0.702 0.293,-0.687C0.32,-0.671 0.341,-0.65 0.357,-0.624C0.372,-0.597 0.38,-0.568 0.38,-0.535L0.38,-0.165C0.38,-0.132 0.372,-0.103 0.357,-0.077C0.341,-0.05 0.32,-0.029 0.293,-0.014C0.266,0.002 0.237,0.01 0.205,0.01ZM0.205,-0.122C0.212,-0.122 0.218,-0.125 0.223,-0.13C0.228,-0.135 0.23,-0.14 0.23,-0.147L0.23,-0.554C0.23,-0.561 0.228,-0.568 0.223,-0.573C0.218,-0.578 0.212,-0.58 0.205,-0.58C0.198,-0.58 0.192,-0.578 0.187,-0.573C0.182,-0.568 0.179,-0.561 0.179,-0.554L0.179,-0.147C0.179,-0.14 0.182,-0.135 0.187,-0.13C0.192,-0.125 0.198,-0.122 0.205,-0.122Z" style="fill-rule:nonzero;"/>
                    </g>
                    <g transform="matrix(12,0,0,12,308.814,567.215)">
                        <path d="M0.187,0.01C0.155,0.01 0.127,0.002 0.104,-0.014C0.08,-0.029 0.062,-0.05 0.049,-0.077C0.036,-0.103 0.03,-0.132 0.03,-0.165L0.03,-0.263C0.03,-0.295 0.038,-0.324 0.054,-0.351C0.069,-0.378 0.09,-0.399 0.117,-0.415C0.144,-0.43 0.173,-0.438 0.205,-0.438L0.232,-0.438L0.232,-0.566C0.232,-0.573 0.229,-0.58 0.224,-0.585C0.219,-0.59 0.212,-0.592 0.205,-0.592C0.198,-0.592 0.192,-0.59 0.187,-0.585C0.182,-0.58 0.179,-0.573 0.179,-0.566L0.179,-0.464L0.03,-0.464L0.03,-0.535C0.03,-0.568 0.038,-0.597 0.054,-0.624C0.069,-0.65 0.09,-0.671 0.117,-0.687C0.144,-0.702 0.173,-0.71 0.205,-0.71C0.238,-0.71 0.267,-0.702 0.294,-0.687C0.32,-0.671 0.341,-0.65 0.357,-0.624C0.372,-0.597 0.38,-0.568 0.38,-0.535L0.38,-0L0.275,-0L0.275,-0.035L0.265,-0.035C0.258,-0.02 0.247,-0.009 0.232,-0.002C0.217,0.006 0.202,0.01 0.187,0.01ZM0.205,-0.129C0.212,-0.129 0.219,-0.132 0.224,-0.137C0.229,-0.142 0.232,-0.148 0.232,-0.155L0.232,-0.298L0.205,-0.298C0.198,-0.298 0.192,-0.296 0.187,-0.291C0.182,-0.286 0.179,-0.279 0.179,-0.272L0.179,-0.155C0.179,-0.148 0.182,-0.142 0.187,-0.137C0.192,-0.132 0.198,-0.129 0.205,-0.129Z" style="fill-rule:nonzero;"/>
                    </g>
                    <g transform="matrix(12,0,0,12,313.374,567.215)">
                        <path d="M0.125,-0L0.125,-0.57L0.03,-0.57L0.03,-0.7L0.37,-0.7L0.37,-0.57L0.275,-0.57L0.275,-0L0.125,-0Z" style="fill-rule:nonzero;"/>
                    </g>
                </g>
                <g transform="matrix(25.5647,-0.0127619,-7.87773e-32,25.5647,-20408.7,-7346.22)">
                    <path d="M837.622,313.803C837.621,313.785 837.62,313.767 837.62,313.749L837.62,313.701C837.62,313.309 837.714,312.955 837.902,312.639C838.09,312.323 838.344,312.071 838.664,311.883C838.984,311.695 839.336,311.601 839.72,311.601C840.112,311.601 840.466,311.695 840.782,311.883C841.098,312.071 841.35,312.323 841.538,312.639C841.726,312.955 841.82,313.309 841.82,313.701L841.82,314.553L840.044,314.553L840.044,313.629C840.044,313.541 840.012,313.465 839.948,313.401C839.884,313.337 839.808,313.305 839.72,313.305C839.64,313.305 839.568,313.337 839.504,313.401C839.44,313.465 839.408,313.541 839.408,313.629C839.408,313.632 839.408,313.634 839.409,313.636C839.409,313.636 839.401,314.164 839.401,314.742C839.401,315.06 839.739,315.01 839.739,315.01L840.242,315.01C841.013,315.01 841.82,315.836 841.82,317.16C841.82,317.563 841.82,318.141 841.82,318.141C841.82,318.533 841.726,318.887 841.538,319.203C841.35,319.519 841.098,319.771 840.782,319.959C840.466,320.147 840.112,320.241 839.72,320.241C839.336,320.241 838.984,320.147 838.664,319.959C838.344,319.771 838.09,319.519 837.902,319.203C837.714,318.887 837.62,318.533 837.62,318.141L837.62,317.181L839.391,317.181L839.408,317.218L839.408,318.201C839.408,318.281 839.438,318.355 839.498,318.423C839.558,318.491 839.632,318.525 839.72,318.525C839.808,318.525 839.894,318.5 839.948,318.423C840.034,318.303 840.036,317.99 840.042,317.929C840.051,317.839 840.058,317.578 840.058,317C840.058,316.696 839.739,316.727 839.739,316.727L839.236,316.727C838.465,316.727 837.639,316.059 837.639,314.735C837.639,314.331 837.622,313.803 837.622,313.803Z"/>
                </g>
            </g>
            <g transform="matrix(2.55453,-0.00127522,-1.37482e-33,0.446154,-1951.86,539.891)">
                <rect x="1157.41" y="705.498" width="212.033" height="104.016"/>
            </g>
        </g>
    </g>
</svg>
