<?xml version="1.0" encoding="UTF-8" standalone="no"?>
<!DOCTYPE svg PUBLIC "-//W3C//DTD SVG 1.1//EN" "http://www.w3.org/Graphics/SVG/1.1/DTD/svg11.dtd">
<svg width="100%" height="100%" viewBox="0 0 255 255" version="1.1" xmlns="http://www.w3.org/2000/svg" xmlns:xlink="http://www.w3.org/1999/xlink" xml:space="preserve" xmlns:serif="http://www.serif.com/" style="fill-rule:evenodd;clip-rule:evenodd;stroke-linejoin:round;stroke-miterlimit:2;">
    <g transform="matrix(1,0,0,1,-218.001,-6259.69)">
        <g transform="matrix(0.944977,0,0,0.944977,-90.7093,4988.23)">
            <path d="M595.811,1480.06C595.811,1554.33 535.515,1614.62 461.248,1614.62C386.981,1614.62 326.685,1554.33 326.685,1480.06C326.685,1405.79 386.981,1345.5 461.248,1345.5C535.515,1345.5 595.811,1405.79 595.811,1480.06Z" style="fill:rgb(140,36,236);"/>
        </g>
        <g transform="matrix(20.8687,-1.81378,-6.14105e-18,20.4246,-17178.7,1457.36)">
            <g>
                <path d="M837.622,313.803C837.621,313.785 837.62,313.767 837.62,313.749L837.62,313.701C837.62,313.309 837.714,312.955 837.902,312.639C838.09,312.323 838.344,312.071 838.664,311.883C838.984,311.695 839.336,311.601 839.72,311.601C840.112,311.601 840.466,311.695 840.782,311.883C841.098,312.071 841.35,312.323 841.538,312.639C841.726,312.955 841.82,313.309 841.82,313.701L841.82,314.553L840.044,314.553L840.044,313.629C840.044,313.541 840.012,313.465 839.948,313.401C839.884,313.337 839.808,313.305 839.72,313.305C839.64,313.305 839.568,313.337 839.504,313.401C839.44,313.465 839.408,313.541 839.408,313.629C839.408,313.632 839.408,313.634 839.409,313.636C839.409,313.636 839.401,314.164 839.401,314.742C839.401,315.06 839.739,315.01 839.739,315.01L840.242,315.01C841.013,315.01 841.82,315.836 841.82,317.16C841.82,317.563 841.82,318.141 841.82,318.141C841.82,318.533 841.726,318.887 841.538,319.203C841.35,319.519 841.098,319.771 840.782,319.959C840.466,320.147 840.112,320.241 839.72,320.241C839.336,320.241 838.984,320.147 838.664,319.959C838.344,319.771 838.09,319.519 837.902,319.203C837.714,318.887 837.62,318.533 837.62,318.141L837.62,317.181L839.391,317.181L839.408,317.218L839.408,318.201C839.408,318.281 839.438,318.355 839.498,318.423C839.558,318.491 839.632,318.525 839.72,318.525C839.808,318.525 839.894,318.5 839.948,318.423C840.034,318.303 840.036,317.99 840.042,317.929C840.051,317.839 840.058,317.578 840.058,317C840.058,316.696 839.739,316.727 839.739,316.727L839.236,316.727C838.465,316.727 837.639,316.059 837.639,314.735C837.639,314.331 837.622,313.803 837.622,313.803Z" style="fill:white;"/>
            </g>
        </g>
    </g>
</svg>
